<svg id="Layer_1" data-name="Layer 1" xmlns="http://www.w3.org/2000/svg" viewBox="0 0 800 600"><defs><style>.cls-1{fill:#f6cac9;}.cls-2{fill:#f2786b;}.cls-3{fill:#90a7cf;}.cls-4{fill:#de4131;}.cls-5{fill:#b18e6a;}.cls-10,.cls-6{fill:#fff;}.cls-7{fill:none;stroke:#f2786b;}.cls-10,.cls-7{stroke-miterlimit:10;}.cls-8{fill:#005083;}.cls-9{fill:#7cc153;}.cls-10{stroke:#e6e7e8;stroke-width:0.7px;}.cls-11{fill:#090a11;}</style></defs><path class="cls-1" d="M372.33,118.11l1-1A4.05,4.05,0,0,0,372.33,118.11Z"/><path class="cls-1" d="M373.53,116.91l-.23.23a8.47,8.47,0,0,1,1.41-.84c0-.19,0-.38,0-.59Z"/><path class="cls-1" d="M424,117.14l1,1A4.3,4.3,0,0,0,424,117.14Z"/><path class="cls-1" d="M423.8,116.91l-1.2-1.2a5.71,5.71,0,0,0,0,.59,8.47,8.47,0,0,1,1.41.84Z"/><polyline class="cls-2" points="377.63 162.65 386.64 119.5 415.74 118.96"/><polygon class="cls-3" points="377.85 162.89 375.87 162.9 384.76 119.92 386.56 119.89 377.85 162.89"/><polyline class="cls-2" points="380.69 171.38 383.9 156.63 407.62 138.41"/><polygon class="cls-3" points="380.75 171.76 378.85 172.41 381.63 158.2 384.06 156.43 380.75 171.76"/><path class="cls-4" d="M405.36,200.74c0,14.66,11.38,13.54,15.55,13.54s1.61-11.28,1.61-25.94,1.68-25.62-1.61-27.17C417,159.33,405.36,186.07,405.36,200.74Z"/><path class="cls-4" d="M394.5,201.14c0,14.23-11.38,13.14-15.55,13.14s-3.63-11.17-1.61-25.17c2.35-16.28-2.56-26.36,1.61-26.36S394.5,186.91,394.5,201.14Z"/><path class="cls-1" d="M458,542.08c-.95-4.44-7.35-3.44-11.07-4.21-4.47-.92-8.65-3.17-12.36-5.42-4.2-2.54-7.45-3.87-7.77-9.57a9,9,0,0,0-.28-1.57l0-1.92L429,352.92c1.39-.17,2.81-.33,4.25-.45.63-12.39.13-25,.13-37.48,0-12.72,3.51-33.72.17-46.57v-.69c4.63,6.57,3.59,20.31,5.2,28.26,2.46,12.2,5.79,23.21,5.92,36.49.07,7.62,2.38,13.62.8,20.66-1.39,6.23-5.47,12.69-7.48,18-1.82,4.8-6.53,6.4-5.78,11.38,1.15,7.61,6.69,3.89,8.32-1.64a10.23,10.23,0,0,1,4.54,0c.32,6.21.05,11.79-2.28,16.68-2,4.28-7.05,10.08,2.18,9.42,12.15-.86,13-23.35,13-32.62a566.09,566.09,0,0,0-8.78-96c-1.18-6.68-1.63-15.07-5.4-21-3.32-5.26-9.22-9.09-13.28-13.89-1.13-1.74-2.74-3.11-3.76-4.89-9.56-16.67-9.39-18.92-9.36-32.19l-.09,0c.4-7,1.25-14.09,2.72-18.25,2.69-7.59,6.12-14.8,8.7-22a47.33,47.33,0,0,0,2.16-12.55,61.58,61.58,0,0,0-.59-13.11c-.71-4.16.36-11.93-1.1-16-1.39-3.86-5.06-4.36-5.3-8.21a27.85,27.85,0,0,0-10.63-2c-5.67-.09-11.39,1-13.32,3.67-1.92-2.63-7.65-3.76-13.32-3.67a27.85,27.85,0,0,0-10.63,2c-.24,3.85-3.91,4.35-5.3,8.21-1.46,4-.39,11.82-1.1,16A61.58,61.58,0,0,0,369,153.6a46.9,46.9,0,0,0,2.17,12.55c2.58,7.16,6,14.37,8.69,22,2.62,7.39,3.26,24,2.95,32.95-1.14,4.33-3.49,9.06-8.3,17.45-1,1.78-2.63,3.15-3.76,4.89-4.06,4.8-10,8.63-13.28,13.89-3.77,6-4.22,14.36-5.4,21a565.07,565.07,0,0,0-8.78,96c0,9.27.87,31.76,13,32.62,9.23.66,4.22-5.14,2.18-9.42-2.34-4.89-2.6-10.47-2.28-16.68a10.23,10.23,0,0,1,4.54,0c1.63,5.53,7.17,9.25,8.32,1.64.75-5-4-6.58-5.78-11.38-2-5.32-1.81-12.95-3.2-19.18-1.58-7.05.69-14.68.76-22.3.13-13.28-.78-21.48,1.68-33.68,1.61-7.95.57-21.69,5.2-28.26v.69c-3.34,12.85.17,33.85.17,46.57,0,12.45-.5,25.09.13,37.48,1.44.12,2.86.28,4.25.45l2.5,166.47,0,1.92a9,9,0,0,0-.28,1.57c-.32,5.7-3.57,7-7.77,9.57-3.71,2.25-7.89,4.5-12.36,5.42-3.72.77-10.12-.23-11.07,4.21-1.33,6.14,4.74,5.06,8.68,5.66,2.22.34,3.9,1.18,6.25,1.27a44.54,44.54,0,0,0,7.93-.52c5.26-.76,10.63-.8,16.08-1.35,4.74-.48,12.3,1.23,13.32-4.24,1.2-6.41-2.53-12.37-1.86-18.42l.05-3.36h0v-1.47h0l-2.45-163.78c2.41.3,4.91.53,7.53.64v.08h.1c.57,0,1.11,0,1.67,0s1.1,0,1.67,0h.1v-.08c2.62-.11,5.12-.34,7.53-.64L407.5,519.65h0v1.47h0l.05,3.36c.67,6-3.06,12-1.86,18.42,1,5.47,8.58,3.76,13.32,4.24,5.45.55,10.82.59,16.08,1.35A44.54,44.54,0,0,0,443,549c2.35-.09,4-.93,6.25-1.27C453.21,547.14,459.27,548.22,458,542.08ZM400,180.77c-.06-1.38,0-2.77,0-4.17C400,178,400,179.39,400,180.77Z"/><circle class="cls-5" cx="396.75" cy="159.45" r="1.3"/><circle class="cls-5" cx="402.25" cy="159.45" r="1.3"/><rect class="cls-6" x="391.55" y="170.92" width="3.2" height="1.6"/><rect class="cls-6" x="395.75" y="170.92" width="3.2" height="1.6"/><rect class="cls-6" x="404.55" y="170.86" width="3.2" height="1.6"/><rect class="cls-6" x="400.35" y="170.86" width="3.2" height="1.6"/><path class="cls-7" d="M411.45,170.09c-1.29-.18-2.29.62-3.44.8a18.16,18.16,0,0,1-2.76,0h-11.2a18.16,18.16,0,0,1-2.76,0c-1.15-.18-2.15-1-3.44-.8"/><polygon class="cls-4" points="434.47 281.57 413.27 281.57 392.75 282.07 372.27 282.07 351.04 281.57 352.88 270 355.67 257.27 367.77 244.57 375.72 234.06 389.73 245.23 404.64 257.12 419.56 269.01 434.47 281.57"/><polygon class="cls-8" points="433.95 314.99 367.05 314.99 366.32 281.57 434.98 281.57 433.95 314.99"/><polygon class="cls-9" points="433.45 363.85 417.13 363.85 400.82 363.85 389.56 363.85 367.55 352.47 367.52 351.88 367.23 339.42 367.32 327.27 366.54 314.99 384.51 315 400.82 315 417.13 315 433.45 315 433.45 327.21 433.45 339.42 433.45 351.63 433.45 363.85"/><polygon class="cls-4" points="433.45 346 389.56 363.85 433.45 363.85 433.45 346"/><rect class="cls-2" x="404.14" y="363.85" width="24.8" height="23.33"/><rect class="cls-6" x="404.14" y="387.02" width="24.8" height="6.38"/><rect class="cls-8" x="404.14" y="393.7" width="24.8" height="18.26"/><rect class="cls-2" x="404.14" y="412.01" width="24.8" height="12.13"/><rect class="cls-6" x="404.14" y="423.97" width="24.8" height="6.38"/><rect class="cls-2" x="404.14" y="430.09" width="24.8" height="6.38"/><rect class="cls-9" x="404.14" y="435.97" width="24.8" height="42.52"/><rect class="cls-8" x="404.14" y="478.49" width="24.8" height="42.28"/><polygon class="cls-8" points="361.81 315 342.66 314.89 351.04 281.57 366.54 281.57 361.81 315"/><rect class="cls-9" x="342.66" y="314.89" width="19.14" height="48.95"/><line class="cls-3" x1="366.3" y1="281.57" x2="362.3" y2="285.04"/><rect class="cls-4" x="359.1" y="281.57" width="8.8" height="3.47"/><rect class="cls-4" x="381.5" y="281.57" width="8.8" height="3.47"/><rect class="cls-4" x="405.24" y="281.57" width="8.8" height="3.47"/><rect class="cls-8" x="394.57" y="279.04" width="6.53" height="3.47"/><rect class="cls-8" x="418.57" y="278.9" width="6.53" height="3.47"/><rect class="cls-8" x="370.97" y="278.9" width="6.53" height="3.47"/><polygon class="cls-8" points="356.77 283.31 351.04 283.31 351.04 279.84 356.77 280.78 356.77 283.31"/><polygon class="cls-4" points="434.47 285.84 428.97 285.04 428.97 279.84 435.27 281.57 434.47 285.84"/><polygon class="cls-6" points="386.79 289.23 375.67 279.63 363.75 289.23 351.84 279.84 352.04 276.33 363.75 285.12 375.67 275.52 386.79 285.12 398.71 275.52 410.62 285.12 422.55 275.52 434.47 285.84 434.47 289.23 423.35 279.63 411.42 289.23 398.71 279.63 386.79 289.23"/><rect class="cls-9" x="369.07" y="311.87" width="8.43" height="4.4"/><rect class="cls-9" x="392.67" y="311.87" width="8.43" height="4.4"/><rect class="cls-9" x="416.47" y="311.87" width="8.43" height="4.4"/><rect class="cls-8" x="380.77" y="313.37" width="8.43" height="4.4"/><rect class="cls-8" x="404.52" y="313.37" width="8.43" height="4.4"/><rect class="cls-9" x="344.57" y="311.17" width="8.43" height="4.4"/><polygon class="cls-8" points="361.81 317.86 356.77 317.27 355.82 313.37 361.81 313.37 361.81 317.86"/><polygon class="cls-6" points="349.08 307.54 345.71 310.25 342.35 312.96 342.1 315.21 341.86 317.46 345.47 314.56 349.08 311.65 355.04 316.45 361 321.25 361 319.55 361.81 317.86 355.04 312.7 349.08 307.54"/><polygon class="cls-8" points="433.62 318.46 428.17 316.97 426.57 311.17 433.62 311.17 433.62 318.46"/><polygon class="cls-6" points="421.7 308.14 409.77 317.74 397.86 308.14 386.74 317.74 374.02 308.14 366.37 314.31 366.73 318.28 374.82 312.25 385.94 321.85 398.66 312.25 409.77 321.85 421.7 312.25 433.62 321.85 433.62 318.46 421.7 308.14"/><polygon class="cls-9" points="413.4 482.17 410.6 482.17 408.76 475.68 415 475.68 413.4 482.17"/><polygon class="cls-9" points="429.2 482.17 425.41 480.57 424.13 475.68 429.2 475.68 429.2 482.17"/><polygon class="cls-8" points="404.2 474.17 407.45 477.22 409.14 482.97 404.16 482.97 404.2 474.17"/><polygon class="cls-8" points="425.35 481.58 417.2 482.17 417.2 475.97 421.8 475.97 425.35 481.58"/><polygon class="cls-6" points="412.4 485.75 404 475.97 404.14 471.24 412.41 480.84 420.67 471.24 429.2 482.17 428.94 485.75 420.67 476.15 412.4 485.75"/><rect class="cls-8" x="370.48" y="511.2" width="26.77" height="5.84"/><rect class="cls-10" x="370.48" y="501.77" width="26.57" height="6"/><polygon class="cls-3" points="383.29 159.45 377.63 162.65 377.63 160.03 383.9 156.63 383.29 159.45"/><circle class="cls-6" cx="414.35" cy="146.68" r="7.2"/><polyline class="cls-2" points="378.5 162.38 387.52 119.23 416.62 118.69"/><polygon class="cls-3" points="378.73 162.63 376.75 162.63 385.64 119.65 387.44 119.62 378.73 162.63"/><polyline class="cls-2" points="381.56 171.11 384.78 156.37 408.5 138.14"/><polygon class="cls-3" points="381.63 171.5 379.73 172.15 382.51 157.94 384.94 156.17 381.63 171.5"/><circle class="cls-6" cx="384.35" cy="146.68" r="7.2"/><circle class="cls-3" cx="384.35" cy="146.55" r="2.8"/><circle class="cls-9" cx="414.41" cy="146.55" r="4.4"/><circle class="cls-11" cx="414.41" cy="146.55" r="2.8"/><circle class="cls-11" cx="384.35" cy="146.55" r="0.8"/><path class="cls-4" d="M419.09,192.44a4.83,4.83,0,0,0-.12.56A5.38,5.38,0,0,0,419.09,192.44Z"/><path class="cls-4" d="M441.21,115.05c-2.36-4.64-10.79-7.39-15.13-11.14-9.83-8.5-15.61-8.55-26.36-7.76-10.74-.79-16.52-.74-26.35,7.76-4.34,3.75-12.78,6.5-15.14,11.14-2.48,4.88,0,16.63.64,21.77.79,6.79,4.52,13,5.88,20,1.29,6.7,4.8,13.21,7.31,19.42.62,1.55,2.3,7.07,3.38,8.54s2.59,1.68,3,2.52a30.57,30.57,0,0,1,2,5.68l.74.41c-.57-2.18-1.11-8.66-1.91-11.49-2.85-10.09-2.52-6-3.61-13.12-2.17-14.22-4.43-24.53.63-38.28,2.77-7.52,2.47-9.45,12.75-9,5,.24,7.53.22,10.65.11,3.13.11,5.63.13,10.66-.11,10.28-.49,10,1.44,12.75,9,5.06,13.75,2.8,24.06.63,38.28-1.09,7.11-.76,3-3.61,13.12-.74,2.62-.63,8-1.06,10.52a36.72,36.72,0,0,1,1.88-5.12c.44-.84,1.93-1,3-2.52s2.76-7,3.38-8.54c2.5-6.21,6-12.72,7.31-19.42,1.36-7,5.09-13.23,5.88-20C441.18,131.68,443.7,119.93,441.21,115.05Z"/></svg>