<svg id="Layer_1" data-name="Layer 1" xmlns="http://www.w3.org/2000/svg" viewBox="0 0 800 600"><defs><style>.cls-1,.cls-11{fill:#f6cac9;}.cls-2{fill:#f2786b;}.cls-3{fill:#fff;}.cls-4{fill:#90a7cf;}.cls-5{fill:#7cc153;}.cls-6{fill:#090a11;}.cls-7{fill:#b18e6a;}.cls-8{fill:#231f20;}.cls-12,.cls-14,.cls-9{fill:none;}.cls-9{stroke:#f2786b;}.cls-11,.cls-12,.cls-14,.cls-9{stroke-miterlimit:10;}.cls-10{fill:#b18f68;}.cls-11{stroke:#9692a2;stroke-width:8px;}.cls-12{stroke:#f8de3b;}.cls-13{fill:#f8de3b;}.cls-14{stroke:#f2776b;}</style></defs><path class="cls-1" d="M372.45,137.8a9.23,9.23,0,0,0,0,18.46Z"/><path class="cls-1" d="M426,137a9.23,9.23,0,0,1,0,18.46Z"/><path class="cls-2" d="M380.86,154.46h-4.37a.28.28,0,0,1,.07.09c2.49,5-.78,13.09-1.28,18.13-.55,5.47-2.52,20.38,7.8,16.76,6.62-2.32,1.83-12.16,1-17.5C383.08,165.79,382.78,159.93,380.86,154.46Z"/><path class="cls-2" d="M421.84,155.35a.28.28,0,0,1,.07-.09h-4.37c-1.92,5.47-2.22,11.33-3.2,17.48-.85,5.34-5.64,15.18,1,17.5,10.31,3.62,8.34-11.29,7.79-16.76C422.62,168.44,419.35,160.32,421.84,155.35Z"/><path class="cls-1" d="M457.3,539.53c-.95-4.43-7.35-3.44-11.07-4.21-4.47-.92-8.65-3.17-12.36-5.42-4.2-2.54-7.45-3.87-7.77-9.57a9,9,0,0,0-.28-1.57l0-1.91,2.5-166.48c1.39-.17,2.81-.33,4.25-.45.63-12.39-14-24.71-14-37.16,0-12.72,17.6-34,14.26-46.89v-.69c4.63,6.57,3.59,20.31,5.2,28.27,2.46,12.19,5.61,18.84,5.74,32.12.07,7.61,2.91,17.31,1.33,24.35-1.39,6.23-3.05,13.39-5.06,18.71-1.81,4.8-9.3,6.37-8.55,11.35,1.15,7.61,6.69,3.9,8.32-1.64a10.23,10.23,0,0,1,4.54,0c.32,6.21.06,11.79-2.28,16.68-2,4.28-7.05,10.08,2.18,9.42,12.15-.86,13-23.35,13-32.62a565.07,565.07,0,0,0-8.78-96,62,62,0,0,0-8.18-20.61,121.14,121.14,0,0,0-10.5-14.32c-1.13-1.74-2.74-3.11-3.76-4.89-9.56-16.67-9.39-18.92-9.36-32.19l-.09,0c.4-7,1.25-14.09,2.72-18.25,2.69-7.59,6.12-14.8,8.7-22a47.33,47.33,0,0,0,2.16-12.55,61.58,61.58,0,0,0-.59-13.11c-.71-4.16.36-11.93-1.1-16-1.39-3.86-5.06-4.36-5.3-8.21a27.85,27.85,0,0,0-10.63-2c-5.67-.09-11.39,1-13.32,3.67-1.92-2.63-7.65-3.76-13.32-3.67a27.85,27.85,0,0,0-10.63,2c-.24,3.85-3.91,4.35-5.3,8.21-1.46,4.05-.39,11.82-1.1,16a61.63,61.63,0,0,0-.58,13.11,46.53,46.53,0,0,0,2.16,12.55c2.58,7.16,6,14.37,8.69,22,2.62,7.39,3.26,24,2.95,32.95-1.14,4.33-3.49,9.06-8.3,17.45-1,1.78-2.63,3.15-3.76,4.89-4.06,4.8-2.56,9.06-5.88,14.32-3.77,6-11.62,13.93-12.8,20.61a566.09,566.09,0,0,0-8.78,96c0,9.27.87,31.76,13,32.62,9.23.66,4.22-5.14,2.18-9.42-2.33-4.89-2.6-10.47-2.28-16.68a10.23,10.23,0,0,1,4.54,0c1.63,5.54,7.17,9.25,8.32,1.64.75-5-6.25-6.68-8.06-11.48-2-5.32-5.55-13-6.94-19.2-1.58-7,.33-19.05.4-26.66.13-13.29,5.6-17,8.06-29.19,1.61-8,.57-21.7,5.2-28.27v.69c-3.34,12.85,12.07,33.23,12.07,46,0,12.45-12.4,25.7-11.77,38.09,1.44.12,2.86.28,4.25.45l2.5,166.48,0,1.91a9,9,0,0,0-.28,1.57c-.32,5.7-3.57,7-7.77,9.57-3.71,2.25-7.89,4.5-12.36,5.42-3.72.77-10.12-.22-11.07,4.21-1.32,6.14,4.74,5.06,8.68,5.66,2.22.34,3.9,1.18,6.25,1.27a44.54,44.54,0,0,0,7.93-.52c5.26-.76,10.63-.8,16.08-1.35,4.74-.48,12.3,1.23,13.32-4.24,1.2-6.41-2.53-12.37-1.86-18.42l0-3.35h0V517.1h0L390.7,353.32c2.41.3,4.91.53,7.53.64v.09h.1c.57,0,1.11,0,1.67,0s1.1,0,1.67,0h.1V354c2.62-.11,5.12-.34,7.53-.64L406.85,517.1h0v1.48h0l0,3.35c.67,6.05-3.06,12-1.86,18.42,1,5.47,8.58,3.76,13.32,4.24,5.45.55,10.82.59,16.08,1.35a44.54,44.54,0,0,0,7.93.52c2.35-.09,4-.93,6.25-1.27C452.56,544.59,458.63,545.67,457.3,539.53Zm-58-361.31c-.06-1.38-.05-2.77,0-4.17C399.36,175.45,399.37,176.84,399.31,178.22Z"/><circle class="cls-3" cx="415" cy="143.43" r="7.2"/><circle class="cls-3" cx="385" cy="143.43" r="7.2"/><circle class="cls-4" cx="385" cy="143.31" r="2.8"/><circle class="cls-5" cx="415.06" cy="143.31" r="4.4"/><circle class="cls-6" cx="415.06" cy="143.31" r="2.8"/><circle class="cls-6" cx="385" cy="143.31" r="0.8"/><path class="cls-2" d="M385.28,96.68a64.8,64.8,0,0,1,11.62-1.29c2.18.07,9.33,1.08,11.47,1.32a63.56,63.56,0,0,1,8.5,1.93c2.53.79-4.95-1.28,2.43.61,1.59.4,2.33.3,6.28,4.16,0,0,1,2.7,1.24,3.45,1.09,7.1-.24,9.26-1.24,10.83-1.67,2.63-6.49,3.31-9.42,4.25-4.25,1.37-9.77,5.63-14.22,5.63-6.5,0-12-5.28-18.4-3.87-1.7.37-3.31.32-4.84,1a16.3,16.3,0,0,0-5.36,4.28,14.74,14.74,0,0,0-3.63,10c0,3.71-.36,7.41-.63,11.11a27.25,27.25,0,0,0-.19,5.18c.11.8.62,4,.16,2.66-1-3.13-1.64-6.9-1.45-7.66.45-1.72-.06.68-.11-1.05-.05-2.06-.7-16-.7-18,0-6.53-3.26-10.73,1-19.13,4.87-9.48,1.48-5.42,10.15-12.51"/><path class="cls-2" d="M427.49,135.75c.44,2,.53,4.19,1.1,6.22.31,1.09.82,12.2.85,16.32,1.11-3.86,3.37-16.95,3.37-21,0-5.72.4-11.68-1.53-17.17-.67-1.93-4.77-8-6.17-4l-.3.5a35.67,35.67,0,0,0,.51,8.19c.42,1.82,1,3.58,1.51,5.38"/><circle class="cls-7" cx="397.25" cy="157.44" r="1.3"/><circle class="cls-7" cx="402.75" cy="157.44" r="1.3"/><polygon class="cls-8" points="393.79 524.84 373.71 524.84 367.39 349.92 398.23 354.05 393.79 524.84"/><path class="cls-8" d="M395.57,531.78c-.65-4.39-1.67-8.4-1.7-11.36-4.62-.21-13.73-2.65-17.93-.85-2.06.88-8.36,6-10.63,7.46-2.47,1.61-4.23,3.23-7.1,4.17-.64.21-1.35.39-2.11.58h-9.73c-5.84,0-10.58,6.69-10.58,15h0c-.16,2.3,6.4,2.31,12.22,2.31h46l1.56-2.31h.05v-15Z"/><path class="cls-8" d="M404.43,531.78c.65-4.39,1.67-8.4,1.7-11.36,4.62-.21,13.73-2.65,17.93-.85,2.06.88,8.36,6,10.63,7.46,2.47,1.61,4.23,3.23,7.1,4.17.64.21,1.35.39,2.11.58h9.73c5.84,0,10.58,6.69,10.58,15h0c.16,2.3-6.4,2.31-12.22,2.31H406l-1.56-2.31h-.05v-15Z"/><polygon class="cls-8" points="406.23 524.84 426.24 524.84 432.63 349.92 401.8 354.05 406.23 524.84"/><rect class="cls-3" x="391.9" y="167.86" width="3.2" height="1.6"/><rect class="cls-3" x="396.1" y="167.86" width="3.2" height="1.6"/><rect class="cls-3" x="404.9" y="167.8" width="3.2" height="1.6"/><rect class="cls-3" x="400.7" y="167.8" width="3.2" height="1.6"/><path class="cls-9" d="M411.8,167c-1.29-.18-2.29.62-3.44.8a18.16,18.16,0,0,1-2.76,0H394.4a18,18,0,0,1-2.75,0c-1.16-.18-2.16-1-3.45-.8"/><path class="cls-10" d="M422.51,239.25c0,14.51-10.24,26.26-22.87,26.26s-22.86-11.75-22.86-26.26l-3.07,5.52-6.46,91.83h65.5l-6-90.5Z"/><rect class="cls-8" x="367.09" y="341.69" width="65.54" height="12.32"/><path class="cls-11" d="M399.64,266.92a22.87,22.87,0,0,0,22.87-22.87H376.77A22.87,22.87,0,0,0,399.64,266.92Z"/><rect class="cls-1" x="371.45" y="239.25" width="56.27" height="8.18"/><path class="cls-12" d="M381.81,220.17c.46,1.3.64,3.09,1.52,4.28a9.49,9.49,0,0,0,3.08,2.9,77.05,77.05,0,0,1,7.1,4.4,8.71,8.71,0,0,0,4.06,1.72,18.42,18.42,0,0,0,6.66-.49c3.1-.72,4.89-2.61,7.34-4.42,1.64-1.22,3.24-3,4.77-4.43.61-.57,1.84-2.42,1.81-3.39"/><polygon class="cls-13" points="400.84 235.81 399.98 235.81 399.98 234.69 399.31 234.69 399.31 235.81 398.44 235.81 398.44 236.48 399.31 236.48 399.31 238.57 399.98 238.57 399.98 236.48 400.84 236.48 400.84 235.81"/><rect class="cls-10" x="396.81" y="334.67" width="7.6" height="7.53"/><polygon class="cls-8" points="399.64 343 399.25 341.57 399.25 341.57 388.38 272.9 381.49 220.74 374.44 230.96 367.39 241.17 361.49 249.12 355.58 257.08 355.82 257.13 351.58 265.16 347.58 282.8 344.64 321.61 341.71 360.42 346.59 360.42 351.47 360.42 356.35 360.42 361.22 360.42 362.28 335.31 363.33 310.19 364.39 285.08 365.44 278.59 365.44 343 399.64 343"/><polygon class="cls-8" points="400 343 400.39 341.57 400.39 341.57 411.26 272.9 418.15 220.74 425.2 230.96 432.25 241.17 438.15 249.12 444.06 257.08 443.82 257.13 448.06 265.16 452.06 282.8 455 321.61 457.93 360.42 453.05 360.42 448.17 360.42 443.3 360.42 438.42 360.42 437.36 335.31 436.31 310.19 435.25 285.08 434.2 278.59 434.2 343 400 343"/><path class="cls-14" d="M394,549c2.59-4.46,7.36-3.19,12-3.2"/><path class="cls-14" d="M394,549c2.58-4.46,7.36-3.19,12-3.2"/></svg>