<svg id="Layer_1" data-name="Layer 1" xmlns="http://www.w3.org/2000/svg" viewBox="0 0 800 600"><defs><style>.cls-1,.cls-2{fill:#f6cac9;}.cls-2{stroke:#ddb5b4;}.cls-10,.cls-11,.cls-12,.cls-13,.cls-2,.cls-8{stroke-miterlimit:10;}.cls-10,.cls-11,.cls-13,.cls-3{fill:#fff;}.cls-4{fill:#91a8ce;}.cls-5{fill:#7dc353;}.cls-6{fill:#0e0f13;}.cls-7{fill:#b18f6b;}.cls-8{fill:none;stroke:#f3776b;}.cls-12,.cls-9{fill:#010101;}.cls-10,.cls-11,.cls-13{stroke:#e7e7e7;}.cls-10{stroke-width:1.15px;}.cls-11{stroke-width:2px;}.cls-12{stroke:#595a5c;}.cls-14{fill:#595a5c;}.cls-15{fill:#f3776b;}.cls-16{fill:#f9e03c;isolation:isolate;opacity:0.7;}</style></defs><path class="cls-1" d="M372.15,139.7a9.23,9.23,0,0,0,0,18.45Z"/><path class="cls-1" d="M425.65,138.9a9.23,9.23,0,0,1,0,18.45Z"/><path class="cls-2" d="M457,541.42c-.95-4.43-7.35-3.44-11.07-4.21-4.47-.92-8.65-3.17-12.36-5.42-4.2-2.54-7.45-3.87-7.77-9.57a9,9,0,0,0-.28-1.57l0-1.91L428,352.26c1.4-.17,2.82-.33,4.26-.45.63-12.39-14-24.71-14-37.16,0-12.72,17.59-34,14.26-46.89v-.69c4.62,6.57,3.59,20.31,5.19,28.27,2.47,12.19,5.62,18.84,5.75,32.12.07,7.61,2.91,17.31,1.33,24.35-1.39,6.23-.09,10.21-2.11,15.53-1.81,4.8-12.25,9.55-11.5,14.53,1.15,7.61,6.69,3.89,8.32-1.64a10.23,10.23,0,0,1,4.54,0c.32,6.21.05,11.79-2.28,16.68-2,4.28-7,10.08,2.18,9.42,12.15-.86,13-23.35,13-32.62a567.12,567.12,0,0,0-8.78-96,62,62,0,0,0-8.18-20.61,121.14,121.14,0,0,0-10.5-14.32c-1.13-1.74-2.74-3.11-3.76-4.89-9.56-16.67-9.39-18.92-9.36-32.19l-.09,0c.4-7,1.25-14.09,2.72-18.25,2.69-7.59,6.11-14.79,8.69-22A46.9,46.9,0,0,0,430,152.94a61.58,61.58,0,0,0-.59-13.11c-.71-4.16.36-11.93-1.1-16-1.39-3.86-5.06-4.36-5.3-8.21a27.85,27.85,0,0,0-10.63-2c-5.67-.09-11.39,1-13.32,3.67-1.92-2.63-7.65-3.76-13.32-3.67a27.85,27.85,0,0,0-10.63,2c-.24,3.85-3.91,4.35-5.3,8.21-1.46,4.05-.39,11.82-1.1,16a61,61,0,0,0-.58,13.11,46.53,46.53,0,0,0,2.16,12.55c2.58,7.17,6,14.37,8.69,22,2.62,7.39,3.26,24,2.95,33-1.14,4.33-3.49,9.06-8.3,17.45-1,1.78-2.63,3.15-3.76,4.89-4.06,4.8-2.56,9.06-5.88,14.32-3.77,6-11.62,13.93-12.8,20.61a566.09,566.09,0,0,0-8.78,96c0,9.27.87,31.76,13,32.62,9.23.66,4.22-5.14,2.18-9.42-2.34-4.89-2.6-10.47-2.28-16.68a10.23,10.23,0,0,1,4.54,0c1.62,5.53,7.17,9.25,8.32,1.64.75-5-11.69-10.67-13.51-15.47-2-5.32-.1-9-1.49-15.21-1.58-7.05.33-19.05.4-26.67.13-13.28,5.6-17,8.06-29.19,1.61-7.95.57-21.69,5.2-28.26v.69c-3.34,12.85,12.07,33.23,12.07,46,0,12.45-12.4,25.7-11.77,38.09,1.44.12,2.86.28,4.25.45l2.5,166.47,0,1.92a10,10,0,0,0-.29,1.57c-.31,5.7-3.56,7-7.76,9.57-3.71,2.25-7.89,4.5-12.36,5.42-3.72.77-10.12-.23-11.08,4.21-1.32,6.14,4.74,5.06,8.69,5.66,2.22.34,3.9,1.18,6.25,1.27a44.37,44.37,0,0,0,7.92-.52c5.27-.76,10.63-.8,16.08-1.35,4.75-.48,12.31,1.23,13.33-4.24,1.2-6.41-2.53-12.37-1.87-18.42l.06-3.35h0V519h0l-2.46-163.78c2.42.3,4.92.53,7.54.64v.09H398c.57,0,1.12,0,1.68,0s1.1,0,1.67,0h.1v-.09c2.61-.11,5.11-.34,7.53-.64L406.55,519h0v1.48h0l.05,3.35c.67,6-3.06,12-1.86,18.42,1,5.47,8.58,3.76,13.32,4.24,5.45.55,10.82.59,16.08,1.35a44.48,44.48,0,0,0,7.93.52c2.35-.09,4-.93,6.25-1.27C452.26,546.48,458.32,547.56,457,541.42Z"/><circle class="cls-3" cx="414.7" cy="145.32" r="7.2"/><circle class="cls-3" cx="384.7" cy="145.32" r="7.2"/><circle class="cls-4" cx="384.7" cy="145.2" r="2.8"/><circle class="cls-5" cx="414.76" cy="145.2" r="4.4"/><circle class="cls-6" cx="414.76" cy="145.2" r="2.8"/><circle class="cls-6" cx="384.7" cy="145.2" r="0.8"/><circle class="cls-7" cx="396.95" cy="159.33" r="1.3"/><circle class="cls-7" cx="402.45" cy="159.33" r="1.3"/><rect class="cls-3" x="391.6" y="169.75" width="3.2" height="1.6"/><rect class="cls-3" x="395.8" y="169.75" width="3.2" height="1.6"/><rect class="cls-3" x="404.6" y="169.69" width="3.2" height="1.6"/><rect class="cls-3" x="400.4" y="169.69" width="3.2" height="1.6"/><path class="cls-8" d="M411.5,168.92c-1.29-.18-2.29.62-3.44.8a18.16,18.16,0,0,1-2.76,0H394.1a18,18,0,0,1-2.75,0c-1.15-.18-2.16-1-3.45-.8"/><path class="cls-8" d="M407.49,134.92c2.59-4.46,7.36-3.18,12-3.2"/><path class="cls-8" d="M377.61,135.8c2.58-4.46,7.36-3.19,12-3.2"/><polygon class="cls-9" points="395.84 528.31 386.84 528.31 380.24 528.31 373.64 528.31 353.04 528.31 356.37 501.74 361.31 446.54 363.93 408.95 367.04 343.51 373.64 343.51 380.24 343.51 386.84 343.51 393.44 343.51 402.54 342.84 393.58 425.91 394.19 508.15 395.84 528.31"/><path class="cls-10" d="M384.41,228.33c19,9.58,20.59,55.2,15.89,76.34-9,.43-10.47.29-13.44-9.48-2.17-7.12-6.37-14.83-7.69-21.42-1.36-6.81-.89-17.08-1.15-24.2-.42-11.18,1.38-13.76,4.8-21.24Z"/><path class="cls-10" d="M413.1,228.91c-19,9.58-20.59,55.2-15.89,76.34,9,.42,10.47.28,13.44-9.49,2.17-7.12,6.37-14.83,7.69-21.42,1.36-6.8.89-17.07,1.15-24.19.42-11.19-1.38-13.77-4.8-21.24Z"/><polygon class="cls-9" points="403.88 528.57 412.88 528.57 419.48 528.57 426.08 528.57 446.68 528.57 443.35 502.01 438.41 446.81 435.79 409.22 432.68 343.77 426.08 343.77 419.48 343.77 412.88 343.77 406.28 343.77 397.17 343.11 406.13 426.17 405.53 508.42 403.88 528.57"/><path class="cls-9" d="M396,531.77c-.65-4.38-1.67-8.39-1.7-11.35-4.62-.22-13.73-2.65-17.93-.85-2.06.87-8.36,6-10.63,7.45-2.47,1.61-4.23,3.24-7.1,4.18-.64.21-1.35.39-2.11.57h-9.73c-5.84,0-10.58,6.7-10.58,15h0c-.16,2.31,6.4,2.32,12.22,2.32h46l1.56-2.31h.05v-15Z"/><path class="cls-9" d="M404,531.77c.65-4.38,1.67-8.39,1.7-11.35,4.62-.22,13.73-2.65,17.93-.85,2.06.87,8.36,6,10.63,7.45,2.47,1.61,4.23,3.24,7.1,4.18.64.21,1.35.39,2.11.57h9.73c5.84,0,10.58,6.7,10.58,15h0c.16,2.31-6.4,2.32-12.22,2.32h-46L404,546.72h-.05v-15Z"/><polygon class="cls-3" points="432.64 344.07 367.04 343.51 365.97 260.24 433.7 260.24 432.64 344.07"/><polygon class="cls-11" points="460.23 369.1 447.44 260.57 446.99 260.52 447.44 260.51 419.16 227.5 418.5 261.05 431.34 260.81 440.9 369.1 460.23 369.1"/><polygon class="cls-12" points="432.96 344.11 416.63 346.56 400.3 349.01 400.3 294.41 421.25 228.93 427.68 236.8 434.1 244.67 433.53 294.39 432.96 344.11"/><polygon class="cls-13" points="407.72 233.91 420.52 246.71 420.52 212.31 407.72 233.91"/><polygon class="cls-11" points="338.43 369.9 351.23 261.37 351.68 261.32 351.23 261.31 379.5 228.3 380.17 261.85 367.32 261.61 357.76 369.9 338.43 369.9"/><polygon class="cls-12" points="367.04 344.11 383.37 346.56 399.7 349.01 399.7 294.41 378.75 228.93 372.32 236.8 365.9 244.67 366.47 294.39 367.04 344.11"/><polygon class="cls-13" points="391.13 233.91 378.33 246.71 378.33 212.31 391.13 233.91"/><circle class="cls-14" cx="399.83" cy="299.76" r="2.4"/><circle class="cls-14" cx="399.83" cy="313.41" r="2.4"/><circle class="cls-14" cx="399.7" cy="327.06" r="2.4"/><circle class="cls-14" cx="399.7" cy="340.71" r="2.4"/><path class="cls-15" d="M424.18,95.84H408.12c-2.79-.07-6.64,2.25-9.12,2.27s-6.26-2.34-9.05-2.27H373.88c-17.2,2.75-9,25-9,31.13,0,1.95,2.52,17.85,2.57,19.8,0,1,.24.52.28.39,0,.06-.07.22-.17.59-.19.72.41,4.29,1.45,7.26.46,1.3-.05-1.76-.16-2.52a23.68,23.68,0,0,1,.19-4.9c.26-3.5.63-7,.63-10.51a13.51,13.51,0,0,1,3.62-9.46,16.39,16.39,0,0,1,5.37-4c1.52-.65,3.14-.6,4.83-1a79.73,79.73,0,0,1,31.09,0c1.69.36,3.31.31,4.83,1a16.39,16.39,0,0,1,5.37,4,13.56,13.56,0,0,1,3.62,9.46c0,3.51.36,7,.63,10.51a24.4,24.4,0,0,1,.19,4.9c-.11.76-.62,3.82-.16,2.52,1-3,1.64-6.54,1.44-7.26-.1-.37-.15-.53-.17-.59.05.13.26.62.29-.39.05-2,2.56-17.85,2.56-19.8C433.18,120.79,441.38,98.59,424.18,95.84Z"/><path class="cls-16" d="M424.18,95.84H408.12c-2.79-.07-6.58,2.25-9.05,2.27h-.13c-2.48,0-6.27-2.34-9.06-2.27H373.82c-.6.1-1.16.22-1.7.36V129a15.6,15.6,0,0,1,1.11-1.38,16.18,16.18,0,0,1,5.37-4c1.52-.65,3.13-.6,4.83-1A82,82,0,0,1,399,121.09H399a82.05,82.05,0,0,1,15.55,1.54c1.69.35,3.31.3,4.83,1a16.29,16.29,0,0,1,5.37,4,15.46,15.46,0,0,1,1.1,1.38V96.2C425.34,96.06,424.78,95.94,424.18,95.84Z"/></svg>