<svg id="Layer_1" data-name="Layer 1" xmlns="http://www.w3.org/2000/svg" viewBox="0 0 800 600"><defs><style>.cls-1{fill:#58595b;stroke-width:1.07px;}.cls-1,.cls-9{stroke:#005082;}.cls-1,.cls-5,.cls-6,.cls-8,.cls-9{stroke-miterlimit:10;}.cls-2{fill:#f6cac9;}.cls-3{fill:#b18e6a;}.cls-4{fill:#fff;}.cls-5,.cls-6{fill:none;}.cls-5{stroke:#f2786b;}.cls-6{stroke:#f2776b;}.cls-7{fill:#404041;}.cls-16,.cls-8,.cls-9{fill:#e6e7e8;}.cls-8{stroke:#de4130;}.cls-10{fill:#de4131;}.cls-11{fill:#005083;}.cls-12{fill:#f2786b;}.cls-13{fill:#90a7cf;}.cls-14{fill:#7cc153;}.cls-15{fill:#090a11;}</style></defs><polygon class="cls-1" points="463.54 453.49 336.25 453.49 367.79 351.73 433 351.73 463.54 453.49"/><path class="cls-2" d="M373.37,117.37l1-1A4.05,4.05,0,0,0,373.37,117.37Z"/><path class="cls-2" d="M374.57,116.17l-.23.23a8.47,8.47,0,0,1,1.41-.84,5.62,5.62,0,0,0,0-.59Z"/><path class="cls-2" d="M425.06,116.4l1,1A4.11,4.11,0,0,0,425.06,116.4Z"/><path class="cls-2" d="M424.84,116.17l-1.2-1.2a5.71,5.71,0,0,0,0,.59,8.47,8.47,0,0,1,1.41.84Z"/><path class="cls-2" d="M457.7,541.34c-1-4.43-7.36-3.44-11.08-4.21-4.47-.92-8.65-3.17-12.36-5.42-4.2-2.54-7.45-3.87-7.76-9.57a10,10,0,0,0-.29-1.57l0-1.91,2.5-166.48c1.39-.17,2.81-.33,4.26-.45.63-12.39.12-25,.12-37.48,0-12.72,3.51-33.72.17-46.57V267c4.63,6.57,3.59,20.31,5.2,28.27,2.46,12.19,4.57,19.9,4.7,33.18.07,7.62,7.32,21,1.06,27.42-4.45,4.57-4.51,9.23-6.52,14.55-1.81,4.8-6.53,6.4-5.78,11.38,1.15,7.61,6.7,3.9,8.32-1.64a10.23,10.23,0,0,1,4.54,0c.32,6.21.06,11.79-2.28,16.68-2,4.28-7,10.08,2.18,9.42,12.15-.86,13-23.35,13-32.62a565.07,565.07,0,0,0-8.78-96c-1.18-6.68-1.63-15.06-5.4-21-3.32-5.26-9.22-9.09-13.28-13.89-1.12-1.74-2.74-3.11-3.76-4.89-9.56-16.67-9.39-18.91-9.36-32.19l-.09,0c.4-7,1.25-14.09,2.72-18.25,2.69-7.59,6.12-14.79,8.7-22a47.25,47.25,0,0,0,2.16-12.55,61.58,61.58,0,0,0-.59-13.11c-.71-4.16.36-11.93-1.1-16-1.39-3.86-5.06-4.36-5.3-8.21a27.68,27.68,0,0,0-10.63-2c-5.67-.1-11.39,1-13.32,3.66-1.92-2.63-7.65-3.76-13.32-3.66a27.71,27.71,0,0,0-10.63,2c-.24,3.85-3.91,4.35-5.3,8.21-1.45,4-.39,11.82-1.1,16a61.63,61.63,0,0,0-.58,13.11,46.46,46.46,0,0,0,2.16,12.55c2.58,7.17,6,14.37,8.69,22,2.62,7.39,3.26,24,2.95,32.95-1.14,4.33-3.49,9.06-8.3,17.45-1,1.78-2.63,3.15-3.76,4.89-4.06,4.8-10,8.63-13.28,13.89-3.77,6-4.22,14.36-5.4,21a566.09,566.09,0,0,0-8.78,96c0,9.27.87,31.76,13,32.62,9.23.66,4.23-5.14,2.18-9.42-2.33-4.89-2.6-10.47-2.28-16.68a10.23,10.23,0,0,1,4.54,0c1.63,5.54,7.17,9.25,8.32,1.64.75-5-4-6.58-5.78-11.38-2-5.32-5.53-11.15-6.92-17.38-1.58-7-.07-16.88,0-24.5.13-13.28,3.7-21.08,6.17-33.27,1.6-8,.56-21.7,5.19-28.27v.69c-3.34,12.85.17,33.85.17,46.57,0,12.45-.5,25.09.13,37.48,1.44.12,2.86.28,4.26.45l2.49,166.48,0,1.91a9,9,0,0,0-.28,1.57c-.32,5.7-3.57,7-7.76,9.57-3.72,2.25-7.9,4.5-12.37,5.42-3.72.77-10.12-.22-11.07,4.21-1.32,6.14,4.74,5.06,8.68,5.66,2.22.34,3.9,1.18,6.25,1.28a45.43,45.43,0,0,0,7.93-.53c5.26-.76,10.63-.8,16.08-1.35,4.75-.48,12.3,1.23,13.32-4.24,1.2-6.41-2.53-12.37-1.86-18.42l.05-3.35h0v-1.48h0l-2.45-163.78c2.41.3,4.91.53,7.53.64v.09h.1c.57,0,1.11,0,1.67,0s1.11,0,1.67,0h.1v-.09c2.62-.11,5.12-.34,7.54-.64l-2.46,163.78h0v1.48h0l.06,3.35c.66,6-3.07,12-1.87,18.42,1,5.47,8.58,3.76,13.32,4.24,5.45.55,10.82.59,16.08,1.35a45.5,45.5,0,0,0,7.93.53c2.35-.1,4-.94,6.25-1.28C453,546.4,459,547.48,457.7,541.34ZM399.7,180c-.05-1.38-.05-2.77,0-4.16C399.75,177.26,399.76,178.65,399.7,180Z"/><circle class="cls-3" cx="396.87" cy="158.71" r="1.3"/><circle class="cls-3" cx="402.37" cy="158.71" r="1.3"/><rect class="cls-4" x="390.99" y="170.18" width="3.2" height="1.6"/><rect class="cls-4" x="395.19" y="170.18" width="3.2" height="1.6"/><rect class="cls-4" x="403.99" y="170.12" width="3.2" height="1.6"/><rect class="cls-4" x="399.79" y="170.12" width="3.2" height="1.6"/><path class="cls-5" d="M410.89,169.35c-1.29-.18-2.29.62-3.44.8a18.16,18.16,0,0,1-2.76,0h-11.2a18,18,0,0,1-2.75,0c-1.16-.18-2.16-1-3.45-.8"/><path class="cls-6" d="M407.07,137.71c2.58-4.46,7.36-3.18,12-3.2"/><path class="cls-6" d="M377.18,138.59c2.59-4.46,7.37-3.18,12-3.2"/><polygon class="cls-7" points="433 355.86 398.89 355.86 364.79 355.86 364.79 300.16 372.74 241.91 400.39 252.92 428.8 240.75 433 300.16 433 355.86"/><polygon class="cls-7" points="395.54 521.85 388.94 521.85 382.34 521.85 375.74 521.85 369.14 521.85 366.34 494.49 366.02 440.09 366.02 402.49 369.14 337.05 375.74 337.05 382.34 337.05 388.94 337.05 395.54 337.05 404.64 336.39 395.68 419.45 395.48 501.69 395.54 521.85"/><polygon class="cls-7" points="405.21 521.85 411.81 521.85 418.41 521.85 425.01 521.85 431.61 521.85 434.41 494.49 434.72 440.09 434.72 402.49 431.61 337.05 425.01 337.05 418.41 337.05 411.81 337.05 405.21 337.05 396.11 336.39 405.07 419.45 405.26 501.69 405.21 521.85"/><polygon class="cls-8" points="399.27 310.38 360.13 405.94 366.02 244.46 382.57 220.32 399.27 310.38"/><path class="cls-9" d="M364.11,296.78c0,.67-8.38,52.06-9.42,52.06l-18.44,5.35c-1.05,0,9.34-52.63,9.34-53.31,0,0,12.88-59,13.92-59h5.9"/><polygon class="cls-10" points="362.42 343.27 372.52 328.55 390.03 260.55 382.57 220.32 362.42 343.27"/><polygon class="cls-10" points="378.43 361.25 362.42 343.27 371.96 328.36 386.79 340.69 378.43 361.25"/><polygon class="cls-11" points="366.67 274.29 366.02 254.01 366.02 244.46 374.6 231.94 366.67 274.29"/><polygon class="cls-10" points="383.46 317.27 398.07 303.9 396.11 291.09 387.29 299.89 383.46 317.27"/><polygon class="cls-11" points="399.13 309 390.76 317.27 396.44 317.27 398.92 311.62 399.13 309"/><polygon class="cls-10" points="360.13 405.94 360.13 405.94 362.42 343.27 364.79 343.27 360.13 405.94"/><polygon class="cls-10" points="365.41 247.01 356.46 252.92 359.51 241.91 365.41 241.91 365.41 247.01"/><polygon class="cls-11" points="366.67 274.29 366.02 281.8 356.46 252.92 366.02 244.46 366.67 274.29"/><polygon class="cls-10" points="357.9 333.81 345.86 299.09 350.18 280.23 361.43 313.13 357.9 333.81"/><polygon class="cls-10" points="361.43 313.13 358.55 309 363.17 287.99 364.79 292.74 361.43 313.13"/><polygon class="cls-8" points="401.45 309.36 440.59 404.93 434.69 243.44 418.15 219.31 401.45 309.36"/><path class="cls-9" d="M436.6,295.76c0,.68,8.38,52.07,9.42,52.07l18.45,5.35c1,0-9.35-52.63-9.35-53.32,0,0-12.87-59-13.92-59h-5.89"/><polygon class="cls-10" points="438.3 342.26 428.2 327.54 410.69 259.54 418.15 219.31 438.3 342.26"/><polygon class="cls-10" points="422.28 360.23 438.3 342.26 428.75 327.34 413.92 339.67 422.28 360.23"/><polygon class="cls-11" points="434.05 273.27 434.69 252.99 434.69 243.44 426.11 230.93 434.05 273.27"/><polygon class="cls-10" points="435.31 246 444.25 251.9 441.2 240.89 435.31 240.89 435.31 246"/><polygon class="cls-11" points="434.05 273.27 434.69 280.78 444.25 251.9 434.69 243.44 434.05 273.27"/><polygon class="cls-10" points="442.81 332.8 454.86 298.07 450.53 279.21 439.29 312.12 442.81 332.8"/><polygon class="cls-10" points="439.29 312.12 442.17 307.98 437.55 286.98 435.92 291.73 439.29 312.12"/><polygon class="cls-10" points="417.82 317.61 403.22 304.24 405.18 291.43 413.99 300.23 417.82 317.61"/><polygon class="cls-11" points="402.16 309.34 410.52 317.61 404.84 317.61 402.36 311.97 402.16 309.34"/><path class="cls-12" d="M429,132.26q.35.26.69.48"/><rect class="cls-12" x="398.1" y="184.03" width="3.52" height="10.06"/><polyline class="cls-12" points="390.9 189.82 408.88 189.82 399.89 196.65"/><path class="cls-2" d="M373.9,138a9.23,9.23,0,1,0,0,18.45Z"/><path class="cls-2" d="M424.19,137.16a9.23,9.23,0,0,1,0,18.45Z"/><circle class="cls-4" cx="414.19" cy="146.51" r="7.2"/><circle class="cls-4" cx="384.19" cy="146.51" r="7.2"/><circle class="cls-13" cx="384.19" cy="146.38" r="2.8"/><circle class="cls-14" cx="414.25" cy="146.38" r="4.4"/><circle class="cls-15" cx="414.25" cy="146.38" r="2.8"/><circle class="cls-15" cx="384.19" cy="146.38" r="0.8"/><polygon class="cls-7" points="400.39 252.92 376.99 244.46 381.39 216.92 400.39 252.92"/><polygon class="cls-7" points="400.39 252.92 423.2 244.46 418.65 216.92 400.39 252.92"/><polygon class="cls-16" points="359.89 453.28 337.89 450.4 347.59 419.15 359.89 419.35 359.89 453.28"/><polyline class="cls-10" points="347.1 419.63 361.32 438.57 360.61 374.61"/><polygon class="cls-11" points="343.14 429.92 360.63 453.28 336.14 453.28 342.01 433.95 343.14 429.92"/><rect class="cls-10" x="359.89" y="432.69" width="1.37" height="20.8"/><polygon class="cls-16" points="440.29 453.28 462.29 450.4 452.59 419.15 440.29 419.35 440.29 453.28"/><polyline class="cls-10" points="453.38 419.63 439.15 438.57 439.86 374.61"/><polygon class="cls-11" points="456.54 429.92 439.05 453.28 463.54 453.28 457.66 433.95 456.54 429.92"/><rect class="cls-10" x="439.21" y="432.69" width="1.37" height="20.8"/><polygon class="cls-7" points="363.22 365.86 335.33 366.31 342.51 351.11 355.49 348.84 363.22 365.86"/><polygon class="cls-11" points="336.25 354.19 344.08 309 356.46 341.53 354.69 348.84 336.25 354.19"/><polygon class="cls-7" points="436.78 364.05 464.67 364.51 457.49 349.31 444.51 347.03 436.78 364.05"/><polygon class="cls-11" points="464.47 353.18 456.64 307.98 444.25 340.51 446.02 347.82 464.47 353.18"/><polyline class="cls-12" points="364.44 102.84 367.89 94.15 371.38 102.83 374.82 94.14 378.31 102.82 381.75 94.13 385.24 102.81 388.68 94.11 392.16 102.8 395.61 94.11 399.09 102.79 402.54 94.82 406.02 102.78 409.47 94.09 412.96 102.77 416.41 94.08 419.89 102.76 423.34 94.07 426.83 102.76 430.29 94.07 434.26 103.97 432.2 107.65 430.3 102.92 426.85 111.61 423.36 102.94 419.91 111.63 416.43 102.95 412.97 111.64 409.49 102.96 406.04 111.65 402.56 102.97 399.11 111.66 395.63 102.98 392.18 111.67 388.7 102.99 385.25 111.68 381.77 103 378.32 111.69 374.84 103.01 371.39 111.7 367.91 103.02 364.46 111.71"/><path class="cls-12" d="M364.23,117.78c1,4.84,3,27.33,3.82,31.7.88-8.3,11.92-30.65,20.56-32.76,3.57-.87,7,0,10.53.34l.19,0v-15.8H366C365.6,106.66,363.15,112.75,364.23,117.78Z"/><path class="cls-12" d="M434.26,104l-34.93-2.74V117l.19,0c3.55-.38,7-1.21,10.53-.34,8.64,2.11,19.68,24.46,20.55,32.76.86-4.37,2.8-26.86,3.83-31.7C435.59,112.36,434.69,109.41,434.26,104Z"/><path class="cls-7" d="M396,531.78c-.64-4.39-1.67-8.4-1.69-11.36-4.63-.21-13.73-2.65-17.94-.85-2.05.88-8.35,6-10.62,7.46-2.47,1.61-4.23,3.23-7.11,4.17-.63.21-1.34.4-2.1.58h-9.73c-5.84,0-10.58,6.69-10.58,15h0c-.16,2.3,6.4,2.31,12.22,2.31h46l1.56-2.31h.05v-15Z"/><path class="cls-7" d="M404.88,531.78c.65-4.39,1.67-8.4,1.7-11.36,4.62-.21,13.73-2.65,17.93-.85,2.06.88,8.35,6,10.63,7.46,2.46,1.61,4.23,3.23,7.1,4.17.64.21,1.35.4,2.11.58h9.73c5.84,0,10.58,6.69,10.58,15h0c.16,2.3-6.4,2.31-12.23,2.31h-46l-1.56-2.31h0v-15Z"/></svg>