<svg id="Layer_1" data-name="Layer 1" xmlns="http://www.w3.org/2000/svg" viewBox="0 0 800 600"><defs><style>.cls-1{fill:#f6cac9;}.cls-10,.cls-11,.cls-2,.cls-7,.cls-8{fill:#fff;}.cls-3{fill:#b18e6a;}.cls-4{fill:#90a7cf;}.cls-5{fill:#090a11;}.cls-6{fill:none;stroke:#f2786b;}.cls-10,.cls-11,.cls-6,.cls-7,.cls-8{stroke-miterlimit:10;}.cls-7,.cls-8{stroke:#d0d2d3;}.cls-7{stroke-width:1.17px;}.cls-8{stroke-width:1.15px;}.cls-9{fill:#404041;}.cls-10,.cls-11{stroke:#e6e7e8;}.cls-10{stroke-width:1.15px;}.cls-12{fill:#e6e7e8;}</style></defs><path class="cls-1" d="M373,116.45l1-1A4.05,4.05,0,0,0,373,116.45Z"/><path class="cls-1" d="M374.18,115.25l-.23.23a8.47,8.47,0,0,1,1.41-.84c0-.19,0-.38,0-.59Z"/><path class="cls-1" d="M424.67,115.48l1,1A4.11,4.11,0,0,0,424.67,115.48Z"/><path class="cls-1" d="M424.45,115.25l-1.2-1.2a5.71,5.71,0,0,0,0,.59,8.47,8.47,0,0,1,1.41.84Z"/><path class="cls-1" d="M457.3,540.42c-.95-4.43-7.35-3.44-11.07-4.21-4.47-.92-8.65-3.17-12.36-5.42-4.2-2.54-7.45-3.87-7.77-9.57a9.11,9.11,0,0,0-.28-1.57l0-1.91,2.5-166.48c1.39-.17,2.81-.32,4.25-.44.63-12.4.13-25,.13-37.48,0-12.73,3.51-33.73.17-46.58v-.69c4.63,6.57,3.59,20.31,5.2,28.27,2.46,12.19-.89,20.71-.76,34,.07,7.62,4.78,14.94,3.2,22-1.39,6.23-1.19,13.86-3.2,19.18-1.81,4.8-6.53,6.4-5.78,11.38,1.15,7.61,6.69,3.9,8.32-1.64a10.09,10.09,0,0,1,4.54,0c.32,6.2.06,11.78-2.28,16.67-2,4.29-7.05,10.08,2.18,9.43,12.15-.87,13-23.35,13-32.63a564.86,564.86,0,0,0-8.78-96c-1.18-6.69-1.63-15.07-5.4-21.05-3.32-5.26-9.22-9.09-13.28-13.89-1.13-1.74-2.74-3.11-3.76-4.89-9.56-16.67-9.39-18.91-9.36-32.19l-.09,0c.4-7,1.25-14.09,2.72-18.25,2.69-7.59,6.12-14.79,8.7-22a47.25,47.25,0,0,0,2.16-12.55,61.58,61.58,0,0,0-.59-13.11c-.71-4.16.36-11.93-1.1-16-1.39-3.86-5.06-4.36-5.3-8.21a27.68,27.68,0,0,0-10.63-2c-5.67-.1-11.39,1-13.32,3.67-1.92-2.64-7.65-3.77-13.32-3.67a27.68,27.68,0,0,0-10.63,2c-.24,3.85-3.91,4.35-5.3,8.21-1.46,4.05-.39,11.82-1.1,16a61.63,61.63,0,0,0-.58,13.11,46.46,46.46,0,0,0,2.16,12.55c2.58,7.17,6,14.37,8.69,22,2.62,7.39,3.26,24,2.95,33-1.14,4.33-3.49,9.06-8.3,17.45-1,1.78-2.63,3.15-3.76,4.89-4.06,4.8-10,8.63-13.28,13.89-3.77,6-4.22,14.36-5.4,21.05a565.88,565.88,0,0,0-8.78,96c0,9.28.87,31.76,13,32.63,9.23.65,4.22-5.14,2.18-9.43-2.33-4.89-2.6-10.47-2.28-16.67a10.09,10.09,0,0,1,4.54,0c1.63,5.54,7.17,9.25,8.32,1.64.75-5-4-6.58-5.78-11.38-2-5.32-1.81-12.95-3.2-19.18-1.58-7,3.13-14.36,3.2-22,.13-13.28-3.22-21.8-.76-34,1.61-8,.57-21.7,5.2-28.27v.69c-3.34,12.85.17,33.85.17,46.58,0,12.45-.5,25.08.13,37.48,1.44.12,2.86.27,4.25.44l2.5,166.48,0,1.91a9.11,9.11,0,0,0-.28,1.57c-.32,5.7-3.57,7-7.77,9.57-3.71,2.25-7.89,4.5-12.36,5.42-3.72.77-10.12-.22-11.07,4.21-1.32,6.14,4.74,5.06,8.68,5.66,2.22.34,3.9,1.18,6.25,1.28a45.5,45.5,0,0,0,7.93-.53c5.26-.75,10.63-.8,16.08-1.35,4.74-.48,12.3,1.23,13.32-4.24,1.2-6.41-2.53-12.36-1.86-18.42l0-3.35h0V518h0L390.7,354.22c2.41.3,4.91.52,7.53.63v.09h.1c.57,0,1.11,0,1.67,0s1.1,0,1.67,0h.1v-.09c2.62-.11,5.12-.33,7.53-.63L406.85,518h0v1.48h0l0,3.35c.67,6.06-3.06,12-1.86,18.42,1,5.47,8.58,3.76,13.32,4.24,5.45.55,10.82.6,16.08,1.35a45.5,45.5,0,0,0,7.93.53c2.35-.1,4-.94,6.25-1.28C452.56,545.48,458.63,546.56,457.3,540.42Zm-58-361.31c-.06-1.38-.05-2.77,0-4.16C399.36,176.34,399.37,177.73,399.31,179.11Z"/><circle class="cls-2" cx="413.2" cy="143.99" r="7.2"/><circle class="cls-2" cx="383.2" cy="143.99" r="7.2"/><circle class="cls-3" cx="395.8" cy="156.19" r="1.3"/><circle class="cls-3" cx="401.3" cy="156.19" r="1.3"/><circle class="cls-4" cx="383.2" cy="143.99" r="2"/><circle class="cls-5" cx="413.2" cy="143.99" r="3.6"/><path class="cls-6" d="M410.5,169.27c-1.29.18-2.29-.62-3.44-.8a18.16,18.16,0,0,0-2.76,0H393.1a18,18,0,0,0-2.75,0c-1.16.18-2.16,1-3.45.8"/><rect class="cls-7" x="363.67" y="138.43" width="53.47" height="7.13" transform="translate(-20.26 79.31) rotate(-11.31)"/><rect class="cls-7" x="404.04" y="118.06" width="7.13" height="53.47" transform="translate(138.42 483.38) rotate(-71.07)"/><rect class="cls-7" x="403.24" y="119.26" width="7.13" height="53.47" transform="translate(238.64 544.14) rotate(-86.84)"/><rect class="cls-7" x="364.47" y="145.23" width="53.47" height="7.13" transform="translate(-24.79 102.68) rotate(-14.5)"/><rect class="cls-7" x="380.07" y="142.43" width="53.47" height="7.13" transform="translate(-17.04 61.37) rotate(-8.45)"/><rect class="cls-8" x="387.64" y="114.6" width="7.13" height="52.22" transform="translate(221.63 520.29) rotate(-85.71)"/><rect class="cls-7" x="379.27" y="136.03" width="53.47" height="7.13" transform="translate(-16.11 61.19) rotate(-8.45)"/><rect class="cls-7" x="396.44" y="122.68" width="7.13" height="53.47" transform="translate(235.66 543.52) rotate(-87.85)"/><rect class="cls-7" x="372.67" y="133.3" width="53.47" height="7.13" transform="translate(-9.95 33.5) rotate(-4.74)"/><polygon class="cls-9" points="395.73 521.75 389.13 521.75 382.53 521.75 375.93 521.75 369.33 521.75 366.53 494.38 366.22 439.99 366.22 402.39 369.33 336.94 375.93 336.94 382.53 336.94 389.13 336.94 395.73 336.94 404.84 336.28 395.88 419.35 395.68 501.59 395.73 521.75"/><path class="cls-10" d="M385.91,223.37c18.95,9.58,20.58,55.2,15.88,76.34-9,.42-10.47.29-13.44-9.48-2.17-7.12-6.37-14.83-7.69-21.42-1.36-6.81-.89-17.08-1.15-24.2-.42-11.18,1.38-13.76,4.8-21.24Z"/><polyline class="cls-9" points="443.76 220.99 431.16 220.99 431.16 255.31 437.16 288.59 437.16 322.39 437.16 356.19 443.76 356.19 450.36 356.19 456.96 356.19 456.96 356.19 457.49 330.01 457.49 295.2 457.49 254.82 450.02 227.04"/><path class="cls-10" d="M413.79,223.28c-19,9.58-20.59,55.2-15.89,76.34,9,.42,10.47.28,13.45-9.48,2.17-7.12,6.37-14.84,7.68-21.42,1.36-6.81.89-17.08,1.15-24.2.42-11.18-1.38-13.76-4.79-21.24Z"/><polygon class="cls-9" points="405.41 521.75 412.01 521.75 418.61 521.75 425.21 521.75 431.81 521.75 434.61 494.38 434.92 439.99 434.92 402.39 431.81 336.94 425.21 336.94 418.61 336.94 412.01 336.94 405.41 336.94 396.3 336.28 405.26 419.35 405.46 501.59 405.41 521.75"/><polygon class="cls-9" points="396.46 336.39 415.61 364.39 434.76 364.39 434.76 292.79 434.76 221.19 415.61 221.19 415.61 221.19 396.46 292.79 396.46 336.39"/><polygon class="cls-9" points="403.55 336.39 384.4 364.39 365.25 364.39 365.25 292.79 365.25 221.19 384.4 221.19 384.4 221.19 403.55 292.79 403.55 336.39"/><polygon class="cls-11" points="406.81 227.88 419.61 240.68 419.61 206.28 406.81 227.88"/><polygon class="cls-11" points="392.62 226.28 379.82 239.08 379.82 204.68 392.62 226.28"/><polygon class="cls-11" points="369.83 371.19 337.32 371.19 344.5 355.99 361.3 355.99 369.83 371.19"/><path class="cls-12" d="M367.55,133.78c0-.21,0-.43,0-.64-.75.55-1.53,1.07-2.36,1.57Z"/><path class="cls-12" d="M420.19,81.08c-4.73.2-3.56,5.86-7.84,7.32-5.06,1.72-8.59-3.57-11.45-7.11a8.18,8.18,0,0,1-2.28,4.29,8.23,8.23,0,0,1-2.27-4.29c-2.87,3.54-6.4,8.83-11.46,7.11-4.27-1.46-3.11-7.12-7.83-7.32-1.08,12.58-8.48,4.06-13.41,2.81,3.3,15.59,2.87,33.38,4,49.25,10.3-7.32,13.85-18.92,30.59-16.68v.11l.41,0,.41,0v-.11c16.74-2.24,20.29,9.36,30.59,16.68,1.11-15.87.67-33.66,4-49.25C428.67,85.14,421.26,93.66,420.19,81.08Z"/><path class="cls-12" d="M427.65,133.78c0-.21,0-.43,0-.64.75.55,1.53,1.07,2.36,1.57Z"/><rect class="cls-8" x="381.99" y="130.97" width="52.22" height="7.13" transform="translate(-14.92 59.02) rotate(-8.12)"/><polyline class="cls-9" points="356.24 220.99 368.84 220.99 368.84 255.31 362.84 288.59 362.84 322.39 362.84 356.19 356.24 356.19 349.64 356.19 343.04 356.19 343.04 356.19 342.51 330.01 342.51 295.2 342.51 254.82 349.98 227.04"/><polygon class="cls-11" points="464.06 371.19 431.55 371.19 438.73 355.99 455.53 355.99 464.06 371.19"/><rect class="cls-8" x="385.24" y="109.88" width="7.13" height="52.22" transform="translate(224.12 513.53) rotate(-85.71)"/><circle class="cls-9" cx="382.8" cy="143.19" r="4"/><circle class="cls-9" cx="412.9" cy="143.19" r="4"/><path class="cls-9" d="M395.57,531.78c-.65-4.39-1.67-8.4-1.7-11.36-4.62-.21-13.73-2.65-17.93-.85-2.06.88-8.36,6-10.63,7.46-2.47,1.61-4.23,3.23-7.1,4.17-.64.21-1.35.39-2.11.58h-9.73c-5.84,0-10.58,6.69-10.58,15h0c-.16,2.3,6.4,2.31,12.22,2.31h46l1.56-2.31h.05v-15Z"/><path class="cls-9" d="M404.43,531.78c.65-4.39,1.67-8.4,1.7-11.36,4.62-.21,13.73-2.65,17.93-.85,2.06.88,8.36,6,10.63,7.46,2.47,1.61,4.23,3.23,7.1,4.17.64.21,1.35.39,2.11.58h9.73c5.84,0,10.58,6.69,10.58,15h0c.16,2.3-6.4,2.31-12.22,2.31H406l-1.56-2.31h-.05v-15Z"/></svg>