<svg id="Layer_1" data-name="Layer 1" xmlns="http://www.w3.org/2000/svg" viewBox="0 0 557.16 79.12"><path d="M139.22,30.71H170l.18.48L145.29,49.31Q150,64,154.77,78.66l-.41.27L129.42,60.84l-24.83,18c.88-5.14,2.67-9.92,4.2-14.78s3.14-9.72,4.77-14.76L88.27,30.91a36.62,36.62,0,0,1,6.54-.25c2.08-.05,4.16,0,6.24,0h18.57c3.24-9.91,6.43-19.67,9.61-29.43l.4,0C132.79,11,136,20.65,139.22,30.71Z"/><path d="M342.73,49.33l9.51,29.34-.41.28L286.09,31.18l.18-.39h81.67c-2.21,2-4.33,3.29-6.31,4.77s-4.26,3.11-6.4,4.66-4.14,3-6.2,4.51Z"/><path d="M218.64,79.12c3.29-10.16,6.42-19.85,9.64-29.79L203.41,31.2l.15-.38h81.08c0,.09.1.15.1.23a.28.28,0,0,1-.06.22l-64.54,47C219.83,78.48,219.47,78.64,218.64,79.12Z"/><path d="M500.57,49.31c5.25-16.14,10.43-32.06,15.6-48l.47,0,9.57,29.33H557c.07.2.13.39.2.58L532.28,49.3Q537,64,541.76,78.61l-.41.32Z"/><path d="M457.19,79l-25-18.12-24.76,18c-.2-.06-.28-.06-.33-.11a.32.32,0,0,1-.1-.21c.1-.46.19-.94.33-1.39q12.28-37.71,24.59-75.43c0-.12.24-.2.5-.4L457.6,78.71Z"/><path d="M16.06,0Q28.71,38.64,41,77.49C27.25,67.8,13.66,57.92,0,48,5.22,31.91,10.39,16,15.57.05Z"/></svg>