<svg id="Layer_1" data-name="Layer 1" xmlns="http://www.w3.org/2000/svg" viewBox="0 0 800 600"><defs><style>.cls-1,.cls-14,.cls-7{fill:#fff;}.cls-2{fill:#f6cac9;}.cls-3{fill:#404041;}.cls-4{fill:#b18e6a;}.cls-12,.cls-5{fill:none;}.cls-5{stroke:#f2786b;}.cls-10,.cls-11,.cls-12,.cls-14,.cls-5,.cls-7,.cls-8,.cls-9{stroke-miterlimit:10;}.cls-10,.cls-11,.cls-6,.cls-8,.cls-9{fill:#f9df3c;}.cls-14,.cls-7{stroke:#e6e7e8;}.cls-7{stroke-width:1.15px;}.cls-10,.cls-11,.cls-8,.cls-9{stroke:#d0d2d3;}.cls-8{stroke-width:0.77px;}.cls-10{stroke-width:1.05px;}.cls-11{stroke-width:1.03px;}.cls-12{stroke:#b18e6a;}.cls-13{fill:#29292b;}.cls-15{fill:#90a7cf;}.cls-16{fill:#7cc153;}.cls-17{fill:#090a11;}</style></defs><rect class="cls-1" x="371.6" y="265.25" width="3.2" height="3.2"/><path class="cls-2" d="M373,117.71l1-1A4.27,4.27,0,0,0,373,117.71Z"/><path class="cls-2" d="M374.18,116.51l-.23.22a8.46,8.46,0,0,1,1.41-.83c0-.19,0-.38,0-.59Z"/><path class="cls-2" d="M424.67,116.73l1,1A4.54,4.54,0,0,0,424.67,116.73Z"/><path class="cls-2" d="M424.45,116.51l-1.2-1.2a5.71,5.71,0,0,0,0,.59,8.46,8.46,0,0,1,1.41.83Z"/><path class="cls-2" d="M457.3,541.68c-.95-4.43-7.35-3.44-11.07-4.21-4.47-.92-8.65-3.17-12.36-5.42-4.2-2.54-7.45-3.87-7.77-9.57a9,9,0,0,0-.28-1.57l0-1.91,2.5-166.48c1.39-.17,2.81-.33,4.25-.45.63-12.39.13-25,.13-37.47,0-12.73,3.51-33.73.17-46.58v-.69c4.63,6.57,3.59,20.31,5.2,28.27,2.46,12.19-.89,20.71-.76,34,.07,7.62,4.78,14.94,3.2,22-1.39,6.23-1.19,13.86-3.2,19.18-1.82,4.8-6.53,6.4-5.78,11.38,1.15,7.61,6.69,3.9,8.32-1.64a10.23,10.23,0,0,1,4.54,0c.32,6.21.05,11.79-2.28,16.68-2,4.28-7.05,10.08,2.18,9.42,12.15-.86,13-23.35,13-32.62a566.09,566.09,0,0,0-8.78-96c-1.18-6.68-1.63-15.07-5.4-21-3.32-5.26-9.22-9.09-13.28-13.89-1.13-1.74-2.74-3.11-3.76-4.89-9.56-16.67-9.39-18.92-9.36-32.19l-.09,0c.4-7,1.25-14.09,2.72-18.25,2.69-7.59,6.12-14.8,8.7-22a47.33,47.33,0,0,0,2.16-12.55,61.58,61.58,0,0,0-.59-13.11c-.71-4.16.36-11.93-1.1-16-1.39-3.86-5.06-4.36-5.3-8.21a27.85,27.85,0,0,0-10.63-2c-5.67-.09-11.39,1-13.32,3.67-1.92-2.63-7.65-3.76-13.32-3.67a27.85,27.85,0,0,0-10.63,2c-.24,3.85-3.91,4.35-5.3,8.21-1.46,4-.39,11.82-1.1,16a61.58,61.58,0,0,0-.59,13.11,46.9,46.9,0,0,0,2.17,12.55c2.58,7.16,6,14.37,8.69,22,2.62,7.39,3.26,24,2.95,32.95-1.14,4.33-3.49,9.06-8.3,17.45-1,1.78-2.63,3.15-3.76,4.89-4.06,4.8-10,8.63-13.28,13.89-3.77,6-4.22,14.36-5.4,21a565.07,565.07,0,0,0-8.78,96c0,9.27.87,31.76,13,32.62,9.23.66,4.22-5.14,2.18-9.42-2.34-4.89-2.6-10.47-2.28-16.68a10.23,10.23,0,0,1,4.54,0c1.63,5.54,7.17,9.25,8.32,1.64.75-5-4-6.58-5.78-11.38-2-5.32-1.81-12.95-3.2-19.18-1.58-7,3.13-14.36,3.2-22,.13-13.28-3.22-21.8-.76-34,1.61-8,.57-21.7,5.2-28.27V268c-3.34,12.85.17,33.85.17,46.58,0,12.44-.5,25.08.13,37.47,1.44.12,2.86.28,4.25.45L374.15,519l0,1.91a9,9,0,0,0-.28,1.57c-.32,5.7-3.57,7-7.77,9.57-3.71,2.25-7.89,4.5-12.36,5.42-3.72.77-10.12-.22-11.07,4.21-1.33,6.14,4.74,5.06,8.68,5.66,2.22.34,3.9,1.18,6.25,1.27a44.54,44.54,0,0,0,7.93-.52c5.26-.76,10.63-.8,16.08-1.35,4.74-.48,12.3,1.23,13.32-4.24,1.2-6.41-2.53-12.37-1.86-18.42l0-3.35h0v-1.48h0L390.7,355.47c2.41.3,4.91.53,7.53.64v.09h.1c.57,0,1.11,0,1.67,0s1.1,0,1.67,0h.1v-.09c2.62-.11,5.12-.34,7.53-.64l-2.45,163.78h0v1.48h0l0,3.35c.67,6-3.06,12-1.86,18.42,1,5.47,8.58,3.76,13.32,4.24,5.45.55,10.82.59,16.08,1.35a44.54,44.54,0,0,0,7.93.52c2.35-.09,4-.93,6.25-1.27C452.56,546.74,458.62,547.82,457.3,541.68Zm-58-361.31c-.06-1.38-.05-2.77,0-4.17C399.36,177.6,399.37,179,399.31,180.37Z"/><path class="cls-3" d="M395.06,531.78c-.64-4.39-1.67-8.4-1.7-11.36-4.62-.21-13.73-2.65-17.93-.85-2.06.88-8.36,6-10.63,7.46-2.47,1.61-4.23,3.23-7.1,4.17-.64.21-1.35.4-2.11.58h-9.73c-5.84,0-10.58,6.69-10.58,15h0c-.16,2.3,6.4,2.31,12.23,2.31h46l1.56-2.31h0v-15Z"/><path class="cls-3" d="M404.94,531.78c.65-4.39,1.67-8.4,1.7-11.36,4.62-.21,13.73-2.65,17.93-.85,2.06.88,8.35,6,10.63,7.46,2.47,1.61,4.23,3.23,7.1,4.17.64.21,1.35.4,2.11.58h9.73c5.84,0,10.58,6.69,10.58,15h0c.16,2.3-6.4,2.31-12.22,2.31h-46l-1.56-2.31h0v-15Z"/><circle class="cls-1" cx="413.2" cy="146.85" r="7.2"/><circle class="cls-1" cx="383.2" cy="146.85" r="7.2"/><circle class="cls-4" cx="395.8" cy="159.05" r="1.3"/><circle class="cls-4" cx="401.3" cy="159.05" r="1.3"/><rect class="cls-1" x="390.6" y="170.52" width="3.2" height="1.6"/><rect class="cls-1" x="394.8" y="170.52" width="3.2" height="1.6"/><rect class="cls-1" x="403.6" y="170.46" width="3.2" height="1.6"/><rect class="cls-1" x="399.4" y="170.46" width="3.2" height="1.6"/><path class="cls-5" d="M410.5,169.69c-1.29-.18-2.29.62-3.44.8a18.16,18.16,0,0,1-2.76,0H393.1a18.16,18.16,0,0,1-2.76,0c-1.15-.18-2.15-1-3.44-.8"/><path class="cls-6" d="M369.27,158.38c-.6.29-.15,1.25-1.53.91-3.62-3.35-1.58-5.88-3-9.87-2.16-6.29-3.81-5.37-7.8-9.18-6.48-6.19-7-12.55-2.25-20.66,4.22-7.3,8.83-15.18,12.66-22.22,4.42-8.12,10.37-8.15,19.26-8.58,9.32-.46,18.75,0,28.07,0,10.08,0,12.52,3.62,17.8,11.4,4,5.86,11.9,13.22,14.17,20,3,8.95-3.88,10.68-8.57,16.21-5.25,6.19-2.49,20.89-9.08,24.35-.5-10.72-4.12-17.6-4.72-28.39-4-.92-2.92-9.15-5.75-10.16-4-1.42-10.35.75-14.58,1.78-6.25,1.5-7.37,2.4-12.07,0-3.1-1.57-3.57-5.24-9-5.37-26.18-.64-5.28,25.2-14,38.16Z"/><polygon class="cls-6" points="363.38 359.94 356.79 359.94 350.19 359.94 343.58 359.94 336.99 359.94 336.99 326.14 336.99 292.34 336.99 258.54 343.58 224.74 343.58 224.74 350.19 224.74 356.79 224.74 369.38 224.74 369.38 259.06 363.38 292.34 363.38 326.14 363.38 359.94"/><path class="cls-7" d="M386,227c19,9.58,20.58,55.2,15.88,76.34-9,.42-10.46.28-13.44-9.48-2.17-7.13-6.37-14.84-7.68-21.42-1.36-6.81-.89-17.08-1.16-24.2-.41-11.18,1.38-13.76,4.8-21.24Z"/><polygon class="cls-8" points="405.27 300.26 392.08 247.52 391.62 247.65 384.85 221.39 368.87 241.14 380.15 250.65 370.58 253.15 405.27 300.26"/><polygon class="cls-9" points="394.19 525.4 387.58 525.4 380.99 525.4 374.38 525.4 367.79 525.4 364.99 498.04 358.98 443 358.98 403.06 367.79 340.6 374.38 340.6 380.99 340.6 387.58 340.6 394.19 340.6 403.29 339.94 394.33 423 397.93 506.2 394.19 525.4"/><path class="cls-10" d="M361.7,527.8a1.59,1.59,0,0,0,1.59,1.6h32.86a1.59,1.59,0,0,0,1.58-1.6v-7.2a1.59,1.59,0,0,0-1.58-1.6H363.29a1.6,1.6,0,0,0-1.59,1.6Z"/><polygon class="cls-6" points="437.21 359.84 443.81 359.84 450.41 359.84 457.01 359.84 463.61 359.84 463.61 326.05 463.61 292.25 463.61 258.45 457.01 224.65 457.01 224.65 450.41 224.65 443.81 224.65 431.21 224.65 431.21 258.97 437.21 292.25 437.21 326.05 437.21 359.84"/><path class="cls-7" d="M413.84,226.94c-18.95,9.58-20.58,55.2-15.88,76.34,9,.42,10.46.28,13.44-9.48,2.17-7.13,6.37-14.84,7.68-21.42,1.36-6.81.89-17.08,1.16-24.2.41-11.19-1.39-13.77-4.8-21.24Z"/><polygon class="cls-8" points="394.53 300.17 407.72 247.43 408.18 247.55 414.95 221.3 430.93 241.05 419.64 250.56 429.21 253.06 394.53 300.17"/><polygon class="cls-9" points="406.41 525.31 413.01 525.31 419.61 525.31 426.21 525.31 432.81 525.31 435.61 497.95 441.62 442.91 441.62 402.97 432.81 340.51 426.21 340.51 419.61 340.51 413.01 340.51 406.41 340.51 397.31 339.85 406.27 422.91 402.67 506.11 406.41 525.31"/><path class="cls-10" d="M438.1,527.71a1.6,1.6,0,0,1-1.59,1.6H403.65a1.59,1.59,0,0,1-1.58-1.6v-7.2a1.59,1.59,0,0,1,1.58-1.6h32.86a1.6,1.6,0,0,1,1.59,1.6Z"/><polygon class="cls-11" points="396.51 339.85 415.66 367.85 434.81 367.85 434.81 296.25 434.81 224.65 415.66 224.65 415.66 224.65 396.51 296.25 396.51 339.85"/><polygon class="cls-11" points="403.55 340.06 384.4 368.06 365.25 368.06 365.25 296.45 365.25 224.85 384.4 224.85 384.4 224.85 403.55 296.45 403.55 340.06"/><polygon class="cls-8" points="397.1 289.16 408.19 247.52 408.65 247.65 415.42 221.39 431.4 241.14 420.12 250.65 429.69 253.15 397.1 289.16"/><polygon class="cls-8" points="405.27 302.2 392.08 249.47 391.62 249.59 384.85 223.33 368.87 243.08 380.15 252.59 370.58 255.09 405.27 302.2"/><path class="cls-12" d="M406,138.05c2.59-4.46,7.36-3.19,12-3.2"/><path class="cls-12" d="M376.12,138.92c2.58-4.45,7.36-3.18,12-3.2"/><polygon class="cls-13" points="414.31 284.08 406.25 268.6 414.19 252.08 422.25 267.56 414.31 284.08"/><polygon class="cls-13" points="422 297.28 422.25 296.76 414.19 281.28 406.5 297.28 422 297.28"/><polygon class="cls-13" points="408.27 228.57 408.12 229.51 414.44 257.18 419.08 228.3 408.27 228.57"/><polygon class="cls-13" points="386.33 264.68 378.27 249.19 386.21 232.68 394.27 248.16 386.33 264.68"/><polygon class="cls-13" points="394.02 277.88 394.27 277.36 386.21 261.88 378.52 277.88 394.02 277.88"/><polygon class="cls-14" points="392.67 229.94 379.87 242.74 379.87 208.34 392.67 229.94"/><polygon class="cls-14" points="406.86 231.54 419.66 244.34 419.66 209.94 406.86 231.54"/><circle class="cls-1" cx="414.37" cy="265.37" r="0.8"/><circle class="cls-1" cx="413.2" cy="277.88" r="0.8"/><circle class="cls-1" cx="383.2" cy="244.34" r="0.8"/><circle class="cls-1" cx="388.12" cy="248.68" r="0.8"/><circle class="cls-1" cx="385.2" cy="255.28" r="0.8"/><circle class="cls-1" cx="383.2" cy="249.48" r="0.8"/><circle class="cls-1" cx="387.32" cy="270.68" r="0.8"/><circle class="cls-1" cx="383.2" cy="277.08" r="0.8"/><circle class="cls-1" cx="415.66" cy="270.68" r="0.8"/><circle class="cls-1" cx="409.6" cy="269.88" r="0.8"/><circle class="cls-1" cx="414" cy="292.45" r="0.8"/><circle class="cls-1" cx="390.4" cy="276.28" r="0.8"/><circle class="cls-1" cx="388.12" cy="242.74" r="0.8"/><circle class="cls-1" cx="414" cy="243.54" r="0.8"/><circle class="cls-1" cx="417.06" cy="261.88" r="0.8"/><circle class="cls-1" cx="412.4" cy="261.08" r="0.8"/><circle class="cls-1" cx="414" cy="288.36" r="0.8"/><circle class="cls-1" cx="418" cy="293.25" r="0.8"/><circle class="cls-1" cx="384" cy="271.48" r="0.8"/><circle class="cls-1" cx="388.92" cy="254.48" r="0.8"/><circle class="cls-1" cx="409.6" cy="296.25" r="0.8"/><circle class="cls-1" cx="419.66" cy="268.08" r="0.8"/><circle class="cls-15" cx="383.2" cy="146.72" r="2.8"/><circle class="cls-16" cx="413.26" cy="146.72" r="4.4"/><circle class="cls-17" cx="413.26" cy="146.72" r="2.8"/><circle class="cls-17" cx="383.2" cy="146.72" r="0.8"/></svg>