<svg id="Layer_1" data-name="Layer 1" xmlns="http://www.w3.org/2000/svg" xmlns:xlink="http://www.w3.org/1999/xlink" viewBox="0 0 800 600"><defs><style>.cls-1,.cls-18{fill:none;}.cls-11,.cls-2,.cls-8{fill:#f9df3c;}.cls-3{opacity:0.6;}.cls-10,.cls-15,.cls-4,.cls-5,.cls-6,.cls-7{fill:#90a7cf;}.cls-4,.cls-5,.cls-6{stroke:#f8de3b;}.cls-10,.cls-11,.cls-18,.cls-20,.cls-4,.cls-5,.cls-6,.cls-7,.cls-8{stroke-miterlimit:10;}.cls-4{stroke-width:0.69px;}.cls-5{stroke-width:0.73px;}.cls-6,.cls-8{stroke-width:0.85px;}.cls-10,.cls-7{stroke:#647490;}.cls-7{stroke-width:0.48px;}.cls-11,.cls-20,.cls-8{stroke:#8fa6ce;}.cls-9{opacity:0.3;}.cls-10{stroke-width:0.49px;}.cls-11{stroke-width:0.88px;}.cls-12{fill:#b18e6a;}.cls-13{fill:#f6cac9;}.cls-14{fill:#fff;}.cls-16{fill:#7cc153;}.cls-17{fill:#090a11;}.cls-18{stroke:#b18f69;}.cls-19{fill:#6d6e70;}.cls-20{fill:url(#New_Pattern_Swatch_5);}.cls-21{fill:#c1a688;}.cls-22{fill:#f2786b;}</style><pattern id="New_Pattern_Swatch_5" data-name="New Pattern Swatch 5" width="139" height="139" patternTransform="translate(115 61.07)" patternUnits="userSpaceOnUse" viewBox="0 0 139 139"><rect class="cls-1" width="139" height="139"/><rect class="cls-2" width="139" height="139"/><g class="cls-3"><path class="cls-4" d="M34.07,31.27c0,7.08-5.06,12.82-11.29,12.82S11.49,38.35,11.49,31.27s5-12.82,11.29-12.82S34.07,24.19,34.07,31.27Z"/><path class="cls-5" d="M28.09,29.56c0,3.49-3.83,6.32-8.55,6.32S11,33.05,11,29.56s3.83-6.31,8.54-6.31S28.09,26.07,28.09,29.56Z"/><rect class="cls-2" x="11.06" y="29.13" width="25.63" height="0.85"/><path class="cls-6" d="M37.75,31.27a8.54,8.54,0,1,1-8.54-8.54A8.54,8.54,0,0,1,37.75,31.27Z"/><path class="cls-7" d="M49.08,32c0,1.42-1.15,1.43-2.57,1.43S44,33.39,44,32a2.57,2.57,0,0,1,5.13,0Z"/><path class="cls-7" d="M43.23,32.39c1.22.71.66,1.71,0,2.93s-1.29,2.22-2.52,1.51a2.57,2.57,0,0,1,2.57-4.44Z"/><path class="cls-7" d="M40.66,37.67c1.23-.71,1.81.28,2.52,1.51s1.27,2.22,0,2.93a2.57,2.57,0,0,1-2.57-4.44Z"/><path class="cls-8" d="M47.8,39.47a2.57,2.57,0,1,1,.93-3.5A2.57,2.57,0,0,1,47.8,39.47Z"/><path class="cls-7" d="M44.23,42.53c0-1.42,1.15-1.43,2.56-1.43s2.57,0,2.57,1.43a2.57,2.57,0,0,1-5.13,0Z"/><path class="cls-7" d="M50.08,42.11c-1.23-.71-.66-1.71.05-2.93s1.29-2.22,2.51-1.51a2.56,2.56,0,0,1-2.56,4.44Z"/><path class="cls-7" d="M52.64,36.83c-1.22.71-1.8-.28-2.51-1.5s-1.28-2.23-.05-2.94a2.56,2.56,0,0,1,2.56,4.44Z"/><path class="cls-4" d="M58.9,31.27c0,7.08,5.06,12.82,11.29,12.82s11.29-5.74,11.29-12.82-5-12.82-11.29-12.82S58.9,24.19,58.9,31.27Z"/><path class="cls-5" d="M64.88,29.56c0,3.49,3.83,6.32,8.54,6.32S82,33.05,82,29.56s-3.83-6.31-8.55-6.31S64.88,26.07,64.88,29.56Z"/><rect class="cls-2" x="56.28" y="29.13" width="25.63" height="0.85"/><path class="cls-6" d="M55.21,31.27a8.55,8.55,0,1,0,8.55-8.54A8.54,8.54,0,0,0,55.21,31.27Z"/><path class="cls-7" d="M51.17,48.86a2.57,2.57,0,1,0,2.57-2.56A2.56,2.56,0,0,0,51.17,48.86Z"/><path class="cls-7" d="M53.74,51.42a2.56,2.56,0,1,0,2.56-2.56A2.57,2.57,0,0,0,53.74,51.42Z"/><path class="cls-7" d="M50,52.28a2.56,2.56,0,1,0,2.56-2.57A2.56,2.56,0,0,0,50,52.28Z"/><path class="cls-7" d="M51.89,54a2.56,2.56,0,1,0,2.56-2.57A2.56,2.56,0,0,0,51.89,54Z"/><path class="cls-7" d="M54.45,56.55A2.57,2.57,0,1,0,57,54,2.56,2.56,0,0,0,54.45,56.55Z"/><path class="cls-7" d="M50.75,57.4a2.56,2.56,0,1,0,2.56-2.56A2.57,2.57,0,0,0,50.75,57.4Z"/><path class="cls-7" d="M42.16,48.86a2.57,2.57,0,1,1-2.57-2.56A2.56,2.56,0,0,1,42.16,48.86Z"/><path class="cls-7" d="M39.59,51.42A2.56,2.56,0,1,1,37,48.86,2.56,2.56,0,0,1,39.59,51.42Z"/><path class="cls-7" d="M43.3,52.28a2.57,2.57,0,1,1-2.57-2.57A2.57,2.57,0,0,1,43.3,52.28Z"/><path class="cls-7" d="M41.45,54a2.57,2.57,0,1,1-2.57-2.57A2.57,2.57,0,0,1,41.45,54Z"/><path class="cls-7" d="M38.88,56.55A2.56,2.56,0,1,1,36.32,54,2.56,2.56,0,0,1,38.88,56.55Z"/><path class="cls-7" d="M42.59,57.4A2.57,2.57,0,1,1,40,54.84,2.57,2.57,0,0,1,42.59,57.4Z"/></g><g class="cls-9"><path class="cls-7" d="M93.87,72.85c0,1.42-1.14,1.43-2.56,1.43s-2.56,0-2.56-1.43a2.56,2.56,0,0,1,5.12,0Z"/><path class="cls-7" d="M88,73.27c1.23.71.66,1.71,0,2.93s-1.29,2.21-2.52,1.51A2.56,2.56,0,1,1,88,73.27Z"/><path class="cls-7" d="M85.46,78.55c1.23-.71,1.81.28,2.52,1.5s1.27,2.23,0,2.93a2.56,2.56,0,1,1-2.56-4.43Z"/><path class="cls-8" d="M92.59,80.35a2.56,2.56,0,1,1,.94-3.51A2.58,2.58,0,0,1,92.59,80.35Z"/><path class="cls-7" d="M89,83.4C89,82,90.17,82,91.59,82s2.56,0,2.56,1.42a2.56,2.56,0,1,1-5.12,0Z"/><path class="cls-7" d="M94.88,83c-1.23-.71-.67-1.71,0-2.94s1.29-2.21,2.52-1.5A2.56,2.56,0,0,1,94.88,83Z"/><path class="cls-7" d="M97.44,77.71c-1.23.71-1.81-.28-2.52-1.51s-1.27-2.22,0-2.93a2.56,2.56,0,0,1,2.56,4.44Z"/></g><g class="cls-9"><path class="cls-7" d="M51.79,119c0,1.42-1.15,1.43-2.57,1.43s-2.56,0-2.56-1.43a2.57,2.57,0,0,1,5.13,0Z"/><path class="cls-7" d="M45.93,119.4c1.23.71.66,1.71,0,2.93s-1.29,2.21-2.52,1.51a2.56,2.56,0,0,1,2.56-4.44Z"/><path class="cls-7" d="M43.37,124.68c1.23-.71,1.81.28,2.52,1.5s1.27,2.23,0,2.93a2.56,2.56,0,1,1-2.56-4.43Z"/><path class="cls-8" d="M50.5,126.48a2.56,2.56,0,1,1,.94-3.51A2.58,2.58,0,0,1,50.5,126.48Z"/><path class="cls-7" d="M46.94,129.53c0-1.41,1.15-1.42,2.56-1.42s2.56,0,2.56,1.42a2.56,2.56,0,1,1-5.12,0Z"/><path class="cls-7" d="M52.79,129.12c-1.23-.71-.66-1.71.05-2.94s1.28-2.21,2.51-1.5a2.56,2.56,0,1,1-2.56,4.44Z"/><path class="cls-7" d="M55.35,123.84c-1.23.71-1.81-.28-2.51-1.51s-1.28-2.22-.05-2.93a2.56,2.56,0,0,1,2.56,4.44Z"/></g><g class="cls-9"><path class="cls-7" d="M17.35,94.68c0,1.42-1.15,1.43-2.56,1.43s-2.57,0-2.57-1.43a2.57,2.57,0,0,1,5.13,0Z"/><path class="cls-7" d="M11.5,95.1c1.22.71.66,1.71-.05,2.94s-1.29,2.21-2.51,1.5A2.56,2.56,0,1,1,11.5,95.1Z"/><path class="cls-7" d="M8.94,100.38c1.22-.71,1.8.28,2.51,1.51s1.27,2.22.05,2.93a2.56,2.56,0,1,1-2.56-4.44Z"/><path class="cls-8" d="M16.07,102.18a2.56,2.56,0,1,1,.94-3.5A2.55,2.55,0,0,1,16.07,102.18Z"/><path class="cls-7" d="M12.5,105.24c0-1.42,1.15-1.43,2.56-1.43s2.57,0,2.57,1.43a2.57,2.57,0,0,1-5.13,0Z"/><path class="cls-7" d="M18.35,104.82c-1.22-.71-.66-1.71,0-2.93s1.29-2.22,2.52-1.51a2.57,2.57,0,0,1-2.57,4.44Z"/><path class="cls-7" d="M20.92,99.54c-1.23.71-1.81-.28-2.52-1.5s-1.27-2.23,0-2.94a2.57,2.57,0,0,1,2.57,4.44Z"/></g><g class="cls-9"><path class="cls-7" d="M101.78,16.72c0,1.42-1.15,1.43-2.56,1.43s-2.57,0-2.57-1.43a2.57,2.57,0,0,1,5.13,0Z"/><path class="cls-7" d="M95.93,17.14c1.22.71.66,1.71-.05,2.93s-1.29,2.22-2.52,1.51a2.57,2.57,0,0,1,2.57-4.44Z"/><path class="cls-7" d="M93.36,22.42c1.23-.71,1.81.28,2.52,1.5s1.27,2.23.05,2.94a2.57,2.57,0,0,1-2.57-4.44Z"/><path class="cls-8" d="M100.5,24.22a2.57,2.57,0,1,1,.93-3.5A2.56,2.56,0,0,1,100.5,24.22Z"/><path class="cls-7" d="M96.93,27.28c0-1.42,1.15-1.43,2.56-1.43s2.57,0,2.57,1.43a2.57,2.57,0,0,1-5.13,0Z"/><path class="cls-7" d="M102.78,26.86c-1.22-.71-.66-1.71,0-2.94s1.29-2.21,2.51-1.5a2.56,2.56,0,0,1-2.56,4.44Z"/><path class="cls-7" d="M105.34,21.58c-1.22.71-1.8-.28-2.51-1.51s-1.27-2.22,0-2.93a2.56,2.56,0,0,1,2.56,4.44Z"/></g><g class="cls-9"><path class="cls-7" d="M118.37,62.63c0,1.41-1.15,1.42-2.57,1.42s-2.56,0-2.56-1.42a2.57,2.57,0,0,1,5.13,0Z"/><path class="cls-7" d="M112.51,63.05c1.23.71.66,1.7,0,2.93s-1.29,2.21-2.52,1.51a2.56,2.56,0,1,1,2.56-4.44Z"/><path class="cls-7" d="M110,68.33c1.23-.71,1.81.28,2.52,1.5s1.27,2.23,0,2.93A2.56,2.56,0,1,1,110,68.33Z"/><path class="cls-8" d="M117.08,70.13a2.56,2.56,0,1,1,.94-3.51A2.58,2.58,0,0,1,117.08,70.13Z"/><path class="cls-7" d="M113.52,73.18c0-1.41,1.14-1.42,2.56-1.42s2.56,0,2.56,1.42a2.56,2.56,0,1,1-5.12,0Z"/><path class="cls-7" d="M119.37,72.76c-1.23-.7-.66-1.7,0-2.93s1.3-2.21,2.52-1.5a2.56,2.56,0,1,1-2.56,4.43Z"/><path class="cls-7" d="M121.93,67.49c-1.22.71-1.81-.28-2.52-1.51s-1.27-2.22,0-2.93a2.56,2.56,0,1,1,2.56,4.44Z"/></g><g class="cls-9"><path class="cls-10" d="M43.87,94.49c0-1.5-1.15-1.51-2.56-1.51s-2.57,0-2.57,1.51a2.57,2.57,0,1,0,5.13,0Z"/><path class="cls-10" d="M38,94.05c1.23-.76.66-1.82-.05-3.12s-1.29-2.35-2.51-1.6a2.81,2.81,0,0,0-.94,3.72A2.49,2.49,0,0,0,38,94.05Z"/><path class="cls-10" d="M35.46,88.44c1.22.75,1.8-.3,2.51-1.6s1.28-2.37.05-3.12a2.48,2.48,0,0,0-3.5,1A2.81,2.81,0,0,0,35.46,88.44Z"/><path class="cls-11" d="M42.59,86.52a2.48,2.48,0,0,0-3.5,1A2.81,2.81,0,0,0,40,91.24a2.48,2.48,0,0,0,3.5-1A2.83,2.83,0,0,0,42.59,86.52Z"/><path class="cls-10" d="M39,83.27c0,1.51,1.15,1.52,2.57,1.52s2.56,0,2.56-1.52a2.57,2.57,0,1,0-5.13,0Z"/><path class="cls-10" d="M44.87,83.72c-1.22.75-.66,1.81.05,3.12s1.29,2.35,2.52,1.6a2.82,2.82,0,0,0,.93-3.72A2.48,2.48,0,0,0,44.87,83.72Z"/><path class="cls-10" d="M47.44,89.33c-1.23-.76-1.81.29-2.52,1.6s-1.27,2.36-.05,3.11a2.47,2.47,0,0,0,3.5-1A2.82,2.82,0,0,0,47.44,89.33Z"/></g><g class="cls-3"><path class="cls-4" d="M81.57,102.39c0,7.08-5,12.82-11.29,12.82S59,109.47,59,102.39s5.06-12.82,11.29-12.82S81.57,95.31,81.57,102.39Z"/><path class="cls-5" d="M75.59,100.68c0,3.49-3.82,6.32-8.54,6.32s-8.55-2.83-8.55-6.32,3.83-6.31,8.55-6.31S75.59,97.19,75.59,100.68Z"/><rect class="cls-2" x="58.57" y="100.25" width="25.63" height="0.85"/><path class="cls-6" d="M85.26,102.39a8.55,8.55,0,1,1-8.54-8.54A8.54,8.54,0,0,1,85.26,102.39Z"/><path class="cls-7" d="M96.58,103.09c0,1.42-1.15,1.43-2.56,1.43s-2.56,0-2.56-1.43a2.56,2.56,0,0,1,5.12,0Z"/><path class="cls-7" d="M90.73,103.51c1.23.71.66,1.71,0,2.93s-1.29,2.22-2.51,1.51a2.56,2.56,0,0,1,2.56-4.44Z"/><path class="cls-7" d="M88.17,108.79c1.22-.71,1.81.28,2.51,1.51s1.28,2.22,0,2.93a2.56,2.56,0,1,1-2.56-4.44Z"/><path class="cls-8" d="M95.3,110.59a2.56,2.56,0,1,1,.94-3.5A2.55,2.55,0,0,1,95.3,110.59Z"/><path class="cls-7" d="M91.73,113.65c0-1.42,1.15-1.43,2.57-1.43s2.56,0,2.56,1.43a2.57,2.57,0,0,1-5.13,0Z"/><path class="cls-7" d="M97.59,113.23c-1.23-.71-.67-1.71,0-2.93s1.29-2.22,2.52-1.51a2.56,2.56,0,1,1-2.56,4.44Z"/><path class="cls-7" d="M100.15,108c-1.23.71-1.81-.28-2.52-1.5s-1.27-2.23,0-2.94a2.56,2.56,0,0,1,2.56,4.44Z"/><path class="cls-4" d="M106.4,102.39c0,7.08,5.06,12.82,11.29,12.82S129,109.47,129,102.39s-5-12.82-11.29-12.82S106.4,95.31,106.4,102.39Z"/><path class="cls-5" d="M112.38,100.68c0,3.49,3.83,6.32,8.55,6.32s8.54-2.83,8.54-6.32-3.82-6.31-8.54-6.31S112.38,97.19,112.38,100.68Z"/><rect class="cls-2" x="103.78" y="100.25" width="25.63" height="0.85"/><path class="cls-6" d="M102.72,102.39a8.54,8.54,0,1,0,8.54-8.54A8.54,8.54,0,0,0,102.72,102.39Z"/><path class="cls-7" d="M98.68,120a2.57,2.57,0,1,0,2.56-2.56A2.56,2.56,0,0,0,98.68,120Z"/><path class="cls-7" d="M101.24,122.54a2.57,2.57,0,1,0,2.57-2.56A2.57,2.57,0,0,0,101.24,122.54Z"/><path class="cls-7" d="M97.54,123.4a2.56,2.56,0,1,0,2.56-2.57A2.56,2.56,0,0,0,97.54,123.4Z"/><path class="cls-7" d="M99.39,125.11a2.57,2.57,0,1,0,2.56-2.57A2.56,2.56,0,0,0,99.39,125.11Z"/><path class="cls-7" d="M102,127.67a2.57,2.57,0,1,0,2.57-2.56A2.57,2.57,0,0,0,102,127.67Z"/><path class="cls-7" d="M98.25,128.52a2.57,2.57,0,1,0,2.56-2.56A2.57,2.57,0,0,0,98.25,128.52Z"/><path class="cls-7" d="M89.66,120a2.56,2.56,0,1,1-2.56-2.56A2.56,2.56,0,0,1,89.66,120Z"/><path class="cls-7" d="M87.1,122.54A2.57,2.57,0,1,1,84.54,120,2.57,2.57,0,0,1,87.1,122.54Z"/><path class="cls-7" d="M90.8,123.4a2.57,2.57,0,1,1-2.56-2.57A2.56,2.56,0,0,1,90.8,123.4Z"/><path class="cls-7" d="M89,125.11a2.57,2.57,0,1,1-2.56-2.57A2.56,2.56,0,0,1,89,125.11Z"/><path class="cls-7" d="M86.39,127.67a2.57,2.57,0,1,1-2.57-2.56A2.57,2.57,0,0,1,86.39,127.67Z"/><path class="cls-7" d="M90.09,128.52A2.57,2.57,0,1,1,87.53,126,2.57,2.57,0,0,1,90.09,128.52Z"/></g><g class="cls-9"><path class="cls-7" d="M19.47,65.38c0,1.41-1.15,1.42-2.56,1.42s-2.57,0-2.57-1.42a2.57,2.57,0,1,1,5.13,0Z"/><path class="cls-7" d="M13.62,65.79c1.22.71.66,1.71,0,2.94s-1.29,2.21-2.52,1.5a2.57,2.57,0,0,1,2.57-4.44Z"/><path class="cls-7" d="M11.05,71.07c1.23-.71,1.81.28,2.52,1.51s1.27,2.22,0,2.93a2.57,2.57,0,0,1-2.57-4.44Z"/><path class="cls-8" d="M18.19,72.87a2.57,2.57,0,1,1,.93-3.5A2.55,2.55,0,0,1,18.19,72.87Z"/><path class="cls-7" d="M14.62,75.93c0-1.42,1.15-1.43,2.56-1.43s2.57,0,2.57,1.43a2.57,2.57,0,0,1-5.13,0Z"/><path class="cls-7" d="M20.47,75.51c-1.22-.71-.66-1.71.05-2.93s1.29-2.22,2.52-1.51a2.57,2.57,0,0,1-2.57,4.44Z"/><path class="cls-7" d="M23,70.23c-1.23.71-1.81-.28-2.52-1.5s-1.27-2.23-.05-2.94A2.57,2.57,0,0,1,23,70.23Z"/></g><g class="cls-9"><path class="cls-7" d="M24.62,122c0,1.41-1.15,1.42-2.56,1.42s-2.56,0-2.56-1.42a2.56,2.56,0,1,1,5.12,0Z"/><path class="cls-7" d="M18.77,122.37c1.23.71.66,1.71-.05,2.94s-1.29,2.21-2.51,1.5a2.56,2.56,0,0,1,2.56-4.44Z"/><path class="cls-7" d="M16.21,127.65c1.22-.71,1.81.28,2.51,1.51s1.28,2.22.05,2.93a2.56,2.56,0,1,1-2.56-4.44Z"/><path class="cls-8" d="M23.34,129.45a2.56,2.56,0,1,1,.94-3.5A2.55,2.55,0,0,1,23.34,129.45Z"/><path class="cls-7" d="M19.77,132.51c0-1.42,1.15-1.43,2.57-1.43s2.56,0,2.56,1.43a2.57,2.57,0,0,1-5.13,0Z"/><path class="cls-7" d="M25.62,132.09c-1.22-.71-.66-1.71.05-2.93s1.29-2.22,2.52-1.51a2.57,2.57,0,0,1-2.57,4.44Z"/><path class="cls-7" d="M28.19,126.81c-1.23.71-1.81-.28-2.52-1.5s-1.27-2.23-.05-2.93a2.56,2.56,0,1,1,2.57,4.43Z"/></g><g class="cls-9"><path class="cls-7" d="M49,7.62C49,9,47.86,9.05,46.45,9.05s-2.57,0-2.57-1.43a2.57,2.57,0,0,1,5.13,0Z"/><path class="cls-7" d="M43.16,8c1.22.71.66,1.71,0,2.93s-1.29,2.22-2.52,1.51A2.57,2.57,0,0,1,43.16,8Z"/><path class="cls-7" d="M40.59,13.32c1.23-.71,1.81.28,2.52,1.51s1.27,2.22,0,2.93a2.57,2.57,0,0,1-2.57-4.44Z"/><path class="cls-8" d="M47.73,15.12a2.57,2.57,0,1,1,.93-3.5A2.55,2.55,0,0,1,47.73,15.12Z"/><path class="cls-7" d="M44.16,18.18c0-1.42,1.15-1.43,2.56-1.43s2.57,0,2.57,1.43a2.57,2.57,0,0,1-5.13,0Z"/><path class="cls-7" d="M50,17.76c-1.22-.71-.66-1.71.05-2.93s1.29-2.22,2.52-1.51A2.57,2.57,0,0,1,50,17.76Z"/><path class="cls-7" d="M52.58,12.48c-1.23.71-1.81-.28-2.52-1.51S48.79,8.75,50,8a2.57,2.57,0,0,1,2.57,4.44Z"/></g><g class="cls-9"><path class="cls-7" d="M98.11,46.07c.23,1.4-.9,1.6-2.3,1.83s-2.53.41-2.76-1a2.56,2.56,0,1,1,5.06-.84Z"/><path class="cls-7" d="M92.4,47.44c1.33.5.94,1.58.44,2.9s-.91,2.4-2.24,1.9a2.56,2.56,0,1,1,1.8-4.8Z"/><path class="cls-7" d="M90.74,53.07c1.09-.9,1.83,0,2.73,1.07s1.62,2,.53,2.89a2.56,2.56,0,1,1-3.26-4Z"/><path class="cls-8" d="M98.07,53.68a2.56,2.56,0,1,1,.35-3.61A2.56,2.56,0,0,1,98.07,53.68Z"/><path class="cls-7" d="M95.06,57.28c-.24-1.4.89-1.6,2.29-1.83s2.53-.41,2.76,1a2.56,2.56,0,1,1-5,.84Z"/><path class="cls-7" d="M100.76,55.91c-1.33-.5-.93-1.58-.44-2.91s.91-2.39,2.24-1.89a2.56,2.56,0,1,1-1.8,4.8Z"/><path class="cls-7" d="M102.42,50.28c-1.09.9-1.83,0-2.73-1.07s-1.62-2-.52-2.89a2.56,2.56,0,0,1,3.25,4Z"/></g><g class="cls-9"><path class="cls-7" d="M72.61,65.38c0,1.41-1.14,1.42-2.56,1.42s-2.56,0-2.56-1.42a2.56,2.56,0,1,1,5.12,0Z"/><path class="cls-7" d="M66.76,65.79c1.23.71.66,1.71,0,2.94s-1.29,2.21-2.52,1.5a2.56,2.56,0,1,1,2.56-4.44Z"/><path class="cls-7" d="M64.2,71.07c1.23-.71,1.81.28,2.52,1.51s1.27,2.22,0,2.93a2.56,2.56,0,0,1-2.56-4.44Z"/><path class="cls-8" d="M71.33,72.87a2.56,2.56,0,1,1,.94-3.5A2.56,2.56,0,0,1,71.33,72.87Z"/><path class="cls-7" d="M67.77,75.93c0-1.42,1.14-1.43,2.56-1.43s2.56,0,2.56,1.43a2.56,2.56,0,1,1-5.12,0Z"/><path class="cls-7" d="M73.62,75.51c-1.23-.71-.66-1.71,0-2.93s1.29-2.22,2.52-1.51a2.56,2.56,0,0,1-2.56,4.44Z"/><path class="cls-7" d="M76.18,70.23c-1.23.71-1.81-.28-2.52-1.5s-1.27-2.23,0-2.94a2.56,2.56,0,0,1,2.56,4.44Z"/></g><g class="cls-9"><path class="cls-7" d="M125.64,35.35c0,1.42-1.15,1.43-2.56,1.43s-2.57,0-2.57-1.43a2.57,2.57,0,0,1,5.13,0Z"/><path class="cls-7" d="M119.79,35.77c1.22.71.66,1.71-.05,2.93s-1.29,2.21-2.52,1.51a2.57,2.57,0,0,1,2.57-4.44Z"/><path class="cls-7" d="M117.22,41.05c1.23-.71,1.81.28,2.52,1.5s1.27,2.23.05,2.93a2.56,2.56,0,0,1-2.57-4.43Z"/><path class="cls-8" d="M124.36,42.85a2.57,2.57,0,1,1-2.57-4.44,2.57,2.57,0,0,1,2.57,4.44Z"/><path class="cls-7" d="M120.79,45.9c0-1.41,1.15-1.42,2.56-1.42s2.57,0,2.57,1.42a2.57,2.57,0,1,1-5.13,0Z"/><path class="cls-7" d="M126.64,45.49c-1.23-.71-.66-1.71,0-2.94s1.29-2.21,2.51-1.5a2.56,2.56,0,0,1-2.56,4.44Z"/><path class="cls-7" d="M129.2,40.21c-1.22.71-1.8-.28-2.51-1.51s-1.28-2.22,0-2.93a2.56,2.56,0,0,1,2.56,4.44Z"/></g><g class="cls-9"><path class="cls-7" d="M128.34,9.81c0,1.41-1.14,1.42-2.56,1.42s-2.56,0-2.56-1.42a2.56,2.56,0,1,1,5.12,0Z"/><path class="cls-7" d="M122.49,10.22c1.23.71.66,1.71,0,2.94s-1.29,2.21-2.52,1.5a2.56,2.56,0,1,1,2.56-4.44Z"/><path class="cls-7" d="M119.93,15.5c1.23-.71,1.81.28,2.52,1.51s1.27,2.22,0,2.93a2.56,2.56,0,1,1-2.56-4.44Z"/><path class="cls-8" d="M127.06,17.3a2.56,2.56,0,1,1,.94-3.5A2.56,2.56,0,0,1,127.06,17.3Z"/><path class="cls-7" d="M123.5,20.36c0-1.42,1.14-1.43,2.56-1.43s2.56,0,2.56,1.43a2.56,2.56,0,1,1-5.12,0Z"/><path class="cls-7" d="M129.35,19.94c-1.23-.71-.66-1.71,0-2.93s1.29-2.22,2.52-1.51a2.56,2.56,0,0,1-2.56,4.44Z"/><path class="cls-7" d="M131.91,14.66c-1.23.71-1.81-.28-2.52-1.5s-1.27-2.23,0-2.94a2.56,2.56,0,0,1,2.56,4.44Z"/></g></pattern></defs><path class="cls-12" d="M365.62,145.94c.94,2.82.27,6.86.26,9.89a80.94,80.94,0,0,0,1.06,14,106.3,106.3,0,0,0,8.49,27.34,22.76,22.76,0,0,1,2.46,8.19c.36,4.81-1.81,12.15.79,16.33,1.45,2.33,4.85,5,7.77,4.29s5.57-4.91,6.75-7.3c1.11-2.24.95-5,.95-7.38,0-5.48-.79-10.93-1.31-16.38-.82-8.67-4.85-17.12-6.77-25.63a48.28,48.28,0,0,0-5.84-15c-1-1.56-2.55-2.36-3.71-3.72-.92-1.06-1.39-2.51-2.5-3.43-2.36-1.95-5.86-1.19-8.67-1.19Z"/><path class="cls-13" d="M373.21,114.91l1-1A4.33,4.33,0,0,0,373.21,114.91Z"/><path class="cls-13" d="M374.41,113.71l-.22.22a8.46,8.46,0,0,1,1.41-.83,5.71,5.71,0,0,0,0-.59Z"/><path class="cls-13" d="M457.54,538.88c-1-4.44-7.36-3.44-11.07-4.21-4.47-.92-18.84-4.63-22.55-6.87-4.2-2.54,2.17-11.61,2.17-11.61l2.49-166.47c1.4-.17-6.11-5.53-4.66-5.65.63-12.39-11.13-27.66-11.13-40.11,0-12.73,23.68-25.89,20.34-38.74v-.69c4.63,6.57,3.6,20.31,5.2,28.27,2.47,12.19,7,21.26,7.11,34.54.07,7.61,2.28,20.09.7,27.13-1.39,6.23-6.55,8.16-8.56,13.48-1.82,4.8-6.53,6.4-5.78,11.38,1.15,7.61,6.69,3.89,8.32-1.64a10.19,10.19,0,0,1,4.53,0c.32,6.21.06,11.79-2.27,16.68-2.05,4.28-7.05,10.08,2.18,9.42,12.15-.86,13-23.35,13-32.62a566,566,0,0,0-8.79-96c-1.18-6.68-1.62-15.07-5.39-21-3.32-5.26-9.22-9.09-13.28-13.89-1.13-1.74-2.74-3.11-3.76-4.89-9.57-16.67-9.39-18.92-9.36-32.19l-.1,0c.4-7,1.25-14.08,2.73-18.24,2.69-7.59,6.11-14.8,8.69-22a46.53,46.53,0,0,0,2.16-12.55,61.63,61.63,0,0,0-.58-13.11c-.71-4.16-5.59-11.17-7-15.22-1.39-3.86-7-1.55-7.26-5.39-2.57-1.22-4.52-3.39-8.56-3.46-5.67-.1-28.87-1.34-31.44-.12-.24,3.85-3.91,4.35-5.3,8.21-1.46,4-.39,11.82-1.1,16a61.58,61.58,0,0,0-.59,13.11A47.33,47.33,0,0,0,370.77,163c2.58,7.16,6,14.37,8.7,22,2.62,7.39,3.26,24,2.94,33-1.14,4.33-3.48,9.06-8.29,17.45-1,1.78-2.64,3.15-3.77,4.89-4.05,4.8-10,8.63-13.27,13.89-3.77,6-4.22,14.36-5.4,21a565,565,0,0,0-8.78,96c0,9.27.86,31.76,13,32.62,9.23.66,4.22-5.14,2.18-9.42-2.34-4.89-2.6-10.47-2.28-16.68a10.23,10.23,0,0,1,4.54,0c1.62,5.53,7.16,9.25,8.31,1.64.75-5-4-6.58-5.77-11.38-2-5.32-8.17-1.65-9.56-7.88-1.58-7,2.08-25.12,2.15-32.73.13-13.28,4.19-22.35,6.65-34.54,1.61-8,.57-21.7,5.2-28.27v.69c-3.34,12.85,21,28.8,21,41.53,0,12.45-14.78,24.93-14.15,37.32,1.45.12-3.64,5.48-2.25,5.65l2.49,166.47s7.76,11.61-8,13.06c-4.32.4-7.89,4.5-12.37,5.42-3.71.77-10.11-.23-11.07,4.21-1.32,6.13,4.74,5.06,8.68,5.66,2.23.34,3.91,1.18,6.26,1.27a44.37,44.37,0,0,0,7.92-.52c5.26-.76,10.63-.8,16.08-1.35,4.75-.48,12.31,1.23,13.33-4.24,1.2-6.41-2.53-12.37-1.87-18.42l.05-3.36h0v-1.47h0l-2.45-163.78c2.42.3,4.92.53,7.54.64v.08h.09c.57,0,1.12,0,1.68,0s1.1,0,1.67,0H402v-.08c2.62-.11,5.12-.34,7.54-.64l-2.45,163.78h0v1.47h0l.05,3.36c.67,6.05-3.07,12-1.87,18.42,1,5.47,8.58,3.76,13.33,4.24,5.45.55,10.82.59,16.08,1.35a44.48,44.48,0,0,0,7.93.52c2.35-.09,4-.93,6.25-1.27C452.8,543.94,458.86,545,457.54,538.88Z"/><circle class="cls-12" cx="396.89" cy="161.05" r="1.3"/><circle class="cls-12" cx="402.39" cy="161.05" r="1.3"/><circle class="cls-14" cx="413.94" cy="148.03" r="7.2"/><circle class="cls-14" cx="383.94" cy="148.03" r="7.2"/><circle class="cls-15" cx="383.94" cy="147.91" r="2.8"/><circle class="cls-16" cx="414" cy="147.91" r="4.4"/><circle class="cls-17" cx="414" cy="147.91" r="2.8"/><circle class="cls-17" cx="383.94" cy="147.91" r="0.8"/><path class="cls-1" d="M403.48,112.07a2,2,0,0,1,.26,1.33"/><path class="cls-18" d="M405.2,140.83c2.58-4.46,7.36-3.18,12-3.2"/><path class="cls-19" d="M396.79,531.78c-.38-2.59-3-11.25-3-11.25L392.9,456H373.3l.94,62.75,0,1.91-.18.87c-2.66,1.89-6,4.53-7.55,5.53-2.46,1.61-4.23,3.23-7.1,4.17-.63.21-1.34.39-2.11.58H347.6c-5.85,0-10.58,6.69-10.58,15h0c-.15,2.3,6.4,2.31,12.23,2.31h46l1.55-2.31h.05v-15Z"/><path class="cls-19" d="M403.61,531.78c.38-2.59,3-11.25,3-11.25L407.5,456h19.61l-.94,62.75,0,1.91c.06.29.13.58.18.87,2.66,1.89,6,4.53,7.55,5.53,2.47,1.61,4.23,3.23,7.1,4.17.64.21,1.35.39,2.11.58h9.73c5.84,0,10.58,6.69,10.58,15h0c.16,2.3-6.4,2.31-12.22,2.31h-46l-1.56-2.31h-.05v-15Z"/><polygon class="cls-20" points="434.62 278.14 438.37 315.9 442.12 353.67 456.23 359.96 470.35 366.26 458.89 304.56 447.43 242.87 433.82 235.57 420.21 228.28 414.24 243.18 408.26 258.08 407.49 258.1 406.72 258.11 400.21 285.58 408.86 316.87 400 341.03 391.14 316.87 399.79 285.58 393.28 258.11 392.51 258.1 391.74 258.08 385.76 243.18 379.79 228.28 366.18 235.57 352.57 242.87 341.11 304.56 329.65 366.26 343.77 359.96 357.88 353.67 361.63 315.9 365.38 278.14 365.38 313.1 365.38 348.07 355.78 411.47 346.17 474.86 372.17 474.86 398.17 474.86 398.98 474.86 399.76 474.86 399.78 474.86 399.98 474.86 400.02 474.86 400.22 474.86 400.24 474.86 401.02 474.86 401.83 474.86 427.83 474.86 453.83 474.86 444.22 411.47 434.62 348.07 434.62 313.1 434.62 278.14"/><rect class="cls-2" x="390.48" y="414.07" width="18.14" height="0.8"/><polygon class="cls-15" points="383.32 229.26 396.41 264.69 376.42 264.69 383.32 229.26"/><path class="cls-21" d="M416.94,107.93c-.43-1.39-1.84-2.29-3.77-2.87a28.62,28.62,0,0,0-7-.91c-2.57-.07-5.24,0-7.57.15s-4.33.27-5.55.28c-.29,0-1.59-.11-3.57,0a38.93,38.93,0,0,0-7.64,1,35.23,35.23,0,0,0-19.58,12.18c-1.17,1.42-1.65,4.17-1.74,7.55a92.33,92.33,0,0,0,.65,11.36c.43,4,1,7.85,1.33,11s.55,5.51.28,6.43a33.81,33.81,0,0,0-1.5,11.51,27.42,27.42,0,0,0,1.76,8.17c.86,2.26,1.84,4.11,2.53,5.67s1.1,2.85.81,4c-.84,3.25-1.36,5.62-1.64,7.41a13,13,0,0,0-.17,3.95,5.37,5.37,0,0,0,1,2.26c.45.67,1,1.37,1.67,2.37a2.59,2.59,0,0,0,.21,1.7,10.4,10.4,0,0,1,.67,2.17,9,9,0,0,1-.23,3.63,26.27,26.27,0,0,1-2.51,6.1,24.7,24.7,0,0,0-.25,3.38c-.08,1.91-.14,4.42-.18,6.95s0,5.07,0,7a12.14,12.14,0,0,0,.39,3.66,14.3,14.3,0,0,0,7.36,5.4,11.09,11.09,0,0,0,6.87-.37,14.81,14.81,0,0,0,5.11-3.24,6.17,6.17,0,0,0,2.05-3.23c.08-2.34-1.37-11.58-2.8-18.25s3.81-12,2.47-20-8.88-14.82-9.6-21.11-1.26-10.87-1.91-12.11a14.32,14.32,0,0,1-1-3.37,25.27,25.27,0,0,1-.47-5.22,12.23,12.23,0,0,1,1.07-5.06,5.12,5.12,0,0,1,3.61-2.86,37.57,37.57,0,0,0,10.06-3.45,20.37,20.37,0,0,0,5.4-4.1,40.82,40.82,0,0,0,2.87-3.63,5.09,5.09,0,0,1,2.49-2,22.43,22.43,0,0,0,7.75-4.31,33.5,33.5,0,0,0,6-6.65,29,29,0,0,0,3.65-7A9.5,9.5,0,0,0,416.94,107.93Z"/><polygon class="cls-15" points="416.31 229.26 403.22 264.69 423.21 264.69 416.31 229.26"/><path class="cls-21" d="M417.34,119.74c1,2.17,2,3.83,2.8,5.53a17.9,17.9,0,0,1,1.63,5.78c.44,4,1.32,11.59,1.42,19.89s-.56,17.29-3.19,24a59.91,59.91,0,0,1-1.85,7.22c-.25.73-6.86,12.77-6.95,14.9-.21,4.64,5.46,5.69,4.4,18.09s-2.23,24.11,7.14,23.49a13,13,0,0,0,10.34-6.61c2.22-3.85,2.8-9.08.54-14.84a32.68,32.68,0,0,1-2-13.68c.2-4,.87-7.3.89-8.94.13-11.19-.11-15.79-.06-21s.38-10.88,1.65-24.3c.46-4.81-.24-6.36-1.05-8.26s-1.74-4.16-1.75-10.39c0-1.24.43-1.57-.11-3.29s-2.07-4.83-6-11.63c-1.47-2.54-3.57-2.69-5.81-2.2s-4.58,1.61-6.54,1.61a10.66,10.66,0,0,1,1.68,1.16A10.16,10.16,0,0,1,417.34,119.74Z"/><rect class="cls-22" x="390.52" y="172.13" width="18.48" height="0.79"/></svg>