<svg id="Layer_1" data-name="Layer 1" xmlns="http://www.w3.org/2000/svg" viewBox="0 0 800 600"><defs><style>.cls-1{fill:#f6cac9;}.cls-12,.cls-13,.cls-14,.cls-16,.cls-2{fill:#90a7cf;}.cls-3,.cls-9{fill:#fff;}.cls-3{stroke:#f5cac8;opacity:0.8;}.cls-12,.cls-13,.cls-14,.cls-15,.cls-16,.cls-3,.cls-5{stroke-miterlimit:10;}.cls-4{fill:#b18e6a;}.cls-5{fill:#e7ecf4;stroke:#d0d4db;stroke-width:0.5px;}.cls-6{fill:#f2786b;}.cls-7{opacity:0.9;}.cls-8{fill:#005083;}.cls-10{fill:#7cc153;}.cls-11{fill:#090a11;}.cls-12,.cls-16{stroke:#7385a5;}.cls-12{stroke-width:0.82px;}.cls-13,.cls-14{stroke:#647490;}.cls-13{stroke-width:0.56px;}.cls-14{stroke-width:0.56px;}.cls-15{fill:none;stroke:#005082;}.cls-16{stroke-width:1.18px;}</style></defs><path class="cls-1" d="M373.36,116.18l-.23.22a7.83,7.83,0,0,1,1.41-.83c0-.19,0-.39,0-.59Z"/><path class="cls-1" d="M422.43,115a5.76,5.76,0,0,0,0,.59,7.83,7.83,0,0,1,1.41.83"/><path class="cls-1" d="M456.48,541.35c-1-4.44-7.35-3.45-11.07-4.21-4.47-.92-8.65-3.18-12.36-5.42-4.2-2.54-7.45-3.88-7.77-9.57a9.05,9.05,0,0,0-.28-1.58l0-1.91,2.5-166.47c1.39-.18,2.81-.33,4.25-.45.63-12.39-8.63-41.33-8.63-53.78,0-12.72,12.27-17.42,8.93-30.27V267c4.63,6.57,3.59,20.31,5.2,28.26,2.46,12.2,5,20.62,5.09,33.9.07,7.62,1.58,15.22,0,22.26a153,153,0,0,1-5.85,19c-1.82,4.8-6.53,6.4-5.78,11.38,1.15,7.62,6.69,3.9,8.32-1.63a10,10,0,0,1,4.54,0c.32,6.21,0,11.79-2.28,16.68-2,4.28-7.05,10.08,2.18,9.42,12.15-.87,13-23.35,13-32.62a565.9,565.9,0,0,0-8.78-96c-1.18-6.68-1.63-15.07-5.4-21.05-3.32-5.25-9.22-9.09-13.28-13.88-1.13-1.75-2.74-3.12-3.76-4.9-9.56-16.66-9.39-18.91-9.36-32.19l-.09,0c.4-7,1.25-14.09,2.72-18.25,2.69-7.59,6.12-14.79,8.7-22a47.33,47.33,0,0,0,2.16-12.55,61.58,61.58,0,0,0-.59-13.11c-.71-4.17.36-11.93-1.1-16-1.39-3.87-5.06-4.37-5.3-8.21a27.85,27.85,0,0,0-10.63-2c-5.67-.1-11.39,1-13.32,3.67-1.92-2.63-7.65-3.77-13.32-3.67a27.85,27.85,0,0,0-10.63,2c-.24,3.84-3.91,4.34-5.3,8.21-1.46,4-.39,11.81-1.1,16a61.58,61.58,0,0,0-.59,13.11,46.9,46.9,0,0,0,2.17,12.55c2.58,7.16,6,14.36,8.69,22,2.62,7.4,3.26,24,2.95,33-1.14,4.32-3.49,9.06-8.3,17.44-1,1.78-2.63,3.15-3.76,4.9-4.06,4.79-10,8.63-13.28,13.88-3.77,6-4.22,14.37-5.4,21.05a564.88,564.88,0,0,0-8.78,96c0,9.27.87,31.75,13,32.62,9.23.66,4.22-5.14,2.18-9.42-2.34-4.89-2.6-10.47-2.28-16.68a10,10,0,0,1,4.54,0c1.63,5.53,7.17,9.25,8.32,1.63.75-5-4-6.58-5.78-11.38-2-5.32-7.93-12.12-9.32-18.34-1.58-7.05,3.61-16.49,3.69-24.11.13-13.28,2.41-20.5,4.87-32.7,1.61-7.95.57-21.69,5.2-28.26v.69c-3.34,12.85,12.48,31.15,12.48,43.87,0,12.45-12.81,27.79-12.18,40.18,1.44.12,2.86.27,4.25.45l2.5,166.47,0,1.91a9.05,9.05,0,0,0-.28,1.58c-.32,5.69-3.57,7-7.77,9.57-3.71,2.24-7.89,4.5-12.36,5.42-3.72.76-10.12-.23-11.07,4.21-1.33,6.13,4.74,5,8.68,5.66,2.22.34,3.9,1.18,6.25,1.27a44.54,44.54,0,0,0,7.93-.53c5.26-.75,10.63-.79,16.08-1.34,4.74-.48,12.3,1.22,13.32-4.24,1.2-6.41-2.53-12.37-1.86-18.42l.05-3.36h0v-1.47h0l-2.45-163.77c2.41.3,4.91.53,7.53.64v.08h.1c.57,0,1.11,0,1.67,0s1.1,0,1.67,0h.1v-.08c2.62-.11,5.12-.34,7.53-.64L406,518.91h0v1.47h0l.05,3.36c.67,6-3.06,12-1.86,18.42,1,5.46,8.58,3.76,13.32,4.24,5.45.55,10.82.59,16.08,1.34a44.54,44.54,0,0,0,7.93.53c2.35-.09,4-.93,6.25-1.27C451.74,546.4,457.8,547.48,456.48,541.35ZM398.49,180c-.06-1.37-.05-2.76,0-4.16C398.54,177.27,398.55,178.66,398.49,180Z"/><path class="cls-2" d="M405,525,404.13,405h22.79l-1.7,113.52,0,2a10.85,10.85,0,0,1,.29,1.62c.32,5.86,3.66,7.23,8,9.84,3.82,2.31,8.91,3,13.51,4,3.82.78,9.61,1.36,10.59,5.92,1.35,6.31-4.88,5.2-8.93,5.82-2.29.35-4,1.22-6.43,1.31a46,46,0,0,1-8.15-.54c-5.41-.77-10.93-.82-16.53-1.38-4.88-.49-12.65,1.26-13.7-4.36C402.58,536.13,402.68,536.34,405,525Z"/><path class="cls-2" d="M392.8,525,393.69,405H370.9l1.7,113.52,0,2a10.85,10.85,0,0,0-.29,1.62c-.33,5.86-3.66,7.23-8,9.84-3.82,2.31-8.92,3-13.52,4-3.81.78-9.6,1.36-10.58,5.92-1.36,6.31,4.88,5.2,8.93,5.82,2.29.35,4,1.22,6.42,1.31a46.13,46.13,0,0,0,8.16-.54c5.41-.77,10.93-.82,16.53-1.38,4.88-.49,12.65,1.26,13.7-4.36C395.23,536.13,395.14,536.34,392.8,525Z"/><polygon class="cls-2" points="357.93 362.9 344.31 361.41 330.7 359.92 339.16 320.91 346.28 272.2 354.7 272.69 363.12 273.19 362.05 337.56 357.93 362.9"/><path class="cls-3" d="M369.63,165.41c2.58,7.17,6,14.37,8.7,22,2.62,7.4,3.26,24,2.94,33-1.14,4.32-3.48,9.06-8.29,17.44a12.87,12.87,0,0,1-1.08,1.54h54.39a11.75,11.75,0,0,1-1.07-1.54c-9.57-16.66-9.39-18.91-9.36-32.19l-.1,0c.4-7,1.25-14.09,2.73-18.25,2.69-7.59,6.11-14.79,8.69-22a46.46,46.46,0,0,0,2.16-12.54,61.63,61.63,0,0,0-.58-13.11c-.71-4.17.35-11.93-1.1-16-1.39-3.86-5.07-4.36-5.3-8.2a27.89,27.89,0,0,0-10.63-2c-5.67-.1-11.4,1-13.32,3.67-1.93-2.63-7.66-3.77-13.32-3.67a27.85,27.85,0,0,0-10.63,2c-.24,3.84-3.91,4.34-5.3,8.2-1.46,4.06-.39,11.82-1.11,16a62.29,62.29,0,0,0-.58,13.11A47.25,47.25,0,0,0,369.63,165.41Zm59.52-15.95h-61v-8.64h61Z"/><polygon class="cls-2" points="433.13 352.13 416.04 352.13 398.94 352.13 381.84 352.13 364.75 352.13 364.75 321.18 364.75 290.24 363.12 257.19 379.97 224.43 381.84 228.34 399.18 230.56 416.04 228.34 418.39 224.43 435.61 256.29 433.13 290.24 433.13 321.18 433.13 352.13"/><circle class="cls-4" cx="395.94" cy="158.64" r="1.3"/><circle class="cls-4" cx="401.44" cy="158.64" r="1.3"/><path class="cls-5" d="M405.51,56.89,401.05,52l-2.64-1-2.54,1-4.37,4.89c-.23,0,0,0-2.28,5.76S384,76.1,381.06,83.78s-5.81,15.37-8,21.14-3.59,9.61-3.59,9.61a1.62,1.62,0,0,0,.13.66,1.69,1.69,0,0,0,.36.55,1.61,1.61,0,0,0,.53.36,1.58,1.58,0,0,0,.65.14h54.49a1.63,1.63,0,0,0,.66-.14,1.61,1.61,0,0,0,.53-.36,1.87,1.87,0,0,0,.36-.55,1.8,1.8,0,0,0,.13-.66s-1.42-3.85-3.56-9.61-5-13.45-7.92-21.14S410,68.41,407.77,62.65,405.74,56.89,405.51,56.89Z"/><path class="cls-6" d="M399.05,171.54c.77,0,1.81-.58,2.72-.69a9.26,9.26,0,0,1,2.83.25c1.1.18,4.85.43,5.9.88-.87,1.82-10.62,2.46-11.45.91-.47-.13-.24-.7-.18-1"/><path class="cls-6" d="M399.36,171.54c-.77,0-1.81-.58-2.72-.69a9.16,9.16,0,0,0-2.82.25c-1.11.18-4.85.43-5.9.88.87,1.82,10.61,2.46,11.44.91.48-.13.24-.7.19-1"/><g class="cls-7"><path class="cls-8" d="M368.13,158.64c0,.62,0,1.31.08,2.12A11.3,11.3,0,0,0,368.13,158.64Z"/><path class="cls-8" d="M399.18,120.13c-12.88-.66-29.94,1.32-29.94,1.32-1.39,6.87-3.38,17.39-4,24.85-.48,5.39,2.35,8.14,2.92,12.34-.07-2.54.15-3.9,1.87-7.75,1.28-2.87-.74-7,0-10.12a16.33,16.33,0,0,1,9.38-11.22c5.46-2.56,12.79-3.1,19.81-3.27Z"/></g><g class="cls-7"><path class="cls-8" d="M429.25,158.45c0,.62-.05,1.3-.08,2.11A10.39,10.39,0,0,1,429.25,158.45Z"/><path class="cls-8" d="M398.19,120.13c12.89-.66,29.94,1.31,29.94,1.31,1.4,6.84,3.38,17.31,4,24.73.47,5.36-2.35,8.1-2.92,12.28.07-2.53-.16-3.88-1.88-7.71-1.28-2.86.74-7,0-10.07A16.25,16.25,0,0,0,418,129.5c-5.46-2.55-12.8-3.08-19.82-3.25Z"/></g><path class="cls-5" d="M438.63,124.7a1.75,1.75,0,0,1-1.86,1.61H360a1.75,1.75,0,0,1-1.86-1.61V117A1.76,1.76,0,0,1,360,115.4h76.73a1.75,1.75,0,0,1,1.86,1.62Z"/><circle class="cls-9" cx="413.81" cy="145.35" r="7.2"/><circle class="cls-9" cx="383.81" cy="145.35" r="7.2"/><circle class="cls-2" cx="383.81" cy="145.22" r="2.8"/><circle class="cls-10" cx="413.88" cy="145.22" r="4.4"/><circle class="cls-11" cx="413.88" cy="145.22" r="2.8"/><circle class="cls-11" cx="383.81" cy="145.22" r="0.8"/><polygon class="cls-12" points="358.31 473.94 365.83 486.57 372.66 474.34 358.31 473.94"/><polygon class="cls-12" points="368.07 473.94 375.6 486.57 382.43 474.34 368.07 473.94"/><polygon class="cls-12" points="379.34 474.34 386.86 486.98 393.69 474.75 379.34 474.34"/><polygon class="cls-2" points="439.9 362.9 453.52 361.41 467.14 359.92 458.67 320.91 451.56 272.2 443.13 272.69 434.71 273.19 435.78 337.56 439.9 362.9"/><polygon class="cls-13" points="438.55 473.53 433.13 351.06 393.72 351.9 393.72 351.9 364.78 350.7 358.31 473.94 392.17 473.35 398.45 404.1 404.69 472.94 438.55 473.53"/><polygon class="cls-12" points="438.55 473.53 431.02 486.17 424.2 473.93 438.55 473.53"/><polygon class="cls-12" points="428.79 473.53 421.26 486.17 414.43 473.93 428.79 473.53"/><polygon class="cls-12" points="417.52 473.94 410 486.57 403.17 474.34 417.52 473.94"/><polygon class="cls-14" points="435.46 355.95 440.58 364.82 430.35 364.82 435.46 355.95"/><polygon class="cls-14" points="434.16 349.5 443.03 354.61 434.16 359.73 434.16 349.5"/><polygon class="cls-14" points="417.1 343.76 422.22 334.89 427.34 343.76 417.1 343.76"/><polygon class="cls-14" points="412.16 348.11 412.16 337.88 421.02 343 412.16 348.11"/><polygon class="cls-14" points="410.06 354.36 404.94 345.49 415.18 345.49 410.06 354.36"/><polygon class="cls-14" points="411.36 360.82 402.49 355.7 411.36 350.58 411.36 360.82"/><polygon class="cls-14" points="415.72 365.76 405.48 365.76 410.6 356.89 415.72 365.76"/><polygon class="cls-14" points="421.96 367.86 413.1 372.98 413.1 362.74 421.96 367.86"/><polygon class="cls-14" points="428.42 366.56 423.3 375.42 418.19 366.56 428.42 366.56"/><polygon class="cls-14" points="433.36 362.2 433.36 372.44 424.5 367.32 433.36 362.2"/><polygon class="cls-14" points="429.8 344.56 440.04 344.55 434.92 353.42 429.8 344.56"/><polygon class="cls-14" points="423.56 342.45 432.42 337.33 432.42 347.57 423.56 342.45"/><path class="cls-14" d="M434.22,354.71a12,12,0,1,1-12-12A12,12,0,0,1,434.22,354.71Z"/><polygon class="cls-13" points="386.38 355.95 391.47 364.77 381.28 364.77 386.38 355.95"/><polygon class="cls-13" points="385.08 349.52 393.9 354.62 385.08 359.71 385.08 349.52"/><polygon class="cls-13" points="368.1 343.81 373.19 334.99 378.29 343.81 368.1 343.81"/><polygon class="cls-13" points="363.18 348.15 363.18 337.96 372 343.05 363.18 348.15"/><polygon class="cls-13" points="361.09 354.36 356 345.54 366.18 345.54 361.09 354.36"/><polygon class="cls-13" points="362.39 360.79 353.56 355.7 362.39 350.6 362.39 360.79"/><polygon class="cls-13" points="366.73 365.71 356.54 365.71 361.63 356.89 366.73 365.71"/><polygon class="cls-13" points="372.94 367.8 364.12 372.89 364.12 362.7 372.94 367.8"/><polygon class="cls-13" points="379.37 366.5 374.27 375.33 369.18 366.5 379.37 366.5"/><polygon class="cls-13" points="384.29 362.16 384.29 372.36 375.46 367.26 384.29 362.16"/><polygon class="cls-13" points="380.74 344.61 390.93 344.6 385.84 353.43 380.74 344.61"/><polygon class="cls-13" points="374.53 342.51 383.35 337.42 383.35 347.61 374.53 342.51"/><path class="cls-13" d="M385.13,354.71a11.94,11.94,0,1,1-11.94-11.94A11.94,11.94,0,0,1,385.13,354.71Z"/><path class="cls-15" d="M400,131.76c.71-.69,2.76-2,3.78-1.78a3.38,3.38,0,0,0,1.4,2.41c1.87,1.24,3.81-.21,5.78-.33a3,3,0,0,1,2.61.61c.39.38.48,1,.77,1.4,1.08,1.5,3.16,1.49,4.86,1.49"/><circle class="cls-8" cx="377.76" cy="160.54" r="0.8"/><path class="cls-1" d="M369.31,158.43a26.62,26.62,0,0,1,1.89,4.41,28.08,28.08,0,0,1,1,5.55c.27,2.49,2.32,4.53,2.92,7,.35,1.4,1.54,7.37,1.53,6.72a78.77,78.77,0,0,1-4.3-9.5c-1.29-2.88-3.24-7.49-3.64-10.61-.15-1.18-1.08-5.46-.44-5.89"/><path class="cls-1" d="M427.85,158.43a26.62,26.62,0,0,0-1.89,4.41,27.37,27.37,0,0,0-1,5.55c-.27,2.49-2.32,4.53-2.93,7-.34,1.4-1.54,7.37-1.53,6.72a80.83,80.83,0,0,0,4.31-9.5c1.28-2.88,3.23-7.49,3.63-10.62.15-1.17,1.08-5.45.45-5.88"/><polygon class="cls-12" points="405.58 229.84 397.58 269.46 391.23 230.24 405.58 229.84"/><polygon class="cls-16" points="397.58 229.93 382.46 246.51 376.93 228.55 397.58 229.93"/><polygon class="cls-16" points="400.83 229.93 415.95 246.51 421.48 228.55 400.83 229.93"/><polygon class="cls-12" points="458.41 251.67 465.9 264.64 450.92 264.64 458.41 251.67"/><polygon class="cls-12" points="456.5 242.22 469.48 249.71 456.5 257.19 456.5 242.22"/><polygon class="cls-12" points="431.55 233.82 439.03 220.85 446.52 233.82 431.55 233.82"/><polygon class="cls-12" points="424.32 240.2 424.31 225.22 437.29 232.71 424.32 240.2"/><polygon class="cls-12" points="421.24 249.33 413.75 236.36 428.73 236.37 421.24 249.33"/><polygon class="cls-12" points="423.15 258.78 410.18 251.29 423.15 243.81 423.15 258.78"/><polygon class="cls-12" points="429.52 266.01 414.55 266.01 422.04 253.04 429.52 266.01"/><polygon class="cls-12" points="438.66 269.08 425.69 276.57 425.69 261.6 438.66 269.08"/><polygon class="cls-12" points="448.11 267.18 440.62 280.15 433.13 267.18 448.11 267.18"/><polygon class="cls-12" points="455.34 260.8 455.34 275.78 442.37 268.29 455.34 260.8"/><polygon class="cls-12" points="450.13 234.99 465.11 234.99 457.62 247.96 450.13 234.99"/><polygon class="cls-12" points="440.99 231.92 453.96 224.43 453.96 239.4 440.99 231.92"/><circle class="cls-12" cx="439.03" cy="249.84" r="17.55"/><polygon class="cls-12" points="378.76 252.83 386.25 265.8 371.27 265.8 378.76 252.83"/><polygon class="cls-12" points="376.85 243.38 389.82 250.87 376.85 258.36 376.85 243.38"/><polygon class="cls-12" points="351.89 234.99 359.38 222.02 366.87 234.99 351.89 234.99"/><polygon class="cls-12" points="344.66 241.36 344.66 226.39 357.63 233.88 344.66 241.36"/><polygon class="cls-12" points="341.59 250.5 334.1 237.53 349.08 237.53 341.59 250.5"/><polygon class="cls-12" points="343.5 259.95 330.52 252.46 343.5 244.97 343.5 259.95"/><polygon class="cls-12" points="349.87 267.18 334.89 267.18 342.38 254.21 349.87 267.18"/><polygon class="cls-12" points="359.01 270.25 346.03 277.74 346.04 262.76 359.01 270.25"/><polygon class="cls-12" points="368.45 268.34 360.97 281.32 353.48 268.34 368.45 268.34"/><polygon class="cls-12" points="375.68 261.97 375.68 276.95 362.71 269.46 375.68 261.97"/><polygon class="cls-12" points="370.48 236.16 385.45 236.16 377.96 249.13 370.48 236.16"/><polygon class="cls-12" points="361.34 233.08 374.31 225.59 374.31 240.57 361.34 233.08"/><path class="cls-12" d="M376.93,251a17.55,17.55,0,1,1-17.55-17.55A17.55,17.55,0,0,1,376.93,251Z"/><circle class="cls-12" cx="383.81" cy="309.07" r="4"/><circle class="cls-12" cx="413.9" cy="296.1" r="4"/><circle class="cls-12" cx="346.91" cy="331.43" r="4"/><circle class="cls-12" cx="353.48" cy="300.94" r="4"/><circle class="cls-12" cx="442.37" cy="299.2" r="4"/><circle class="cls-12" cx="448.11" cy="329.44" r="4"/><circle class="cls-12" cx="373.85" cy="434.04" r="4"/><circle class="cls-12" cx="424.31" cy="441.25" r="4"/><circle class="cls-12" cx="420.36" cy="408.74" r="4"/><circle class="cls-12" cx="382.88" cy="405.04" r="4"/></svg>