<svg id="Layer_1" data-name="Layer 1" xmlns="http://www.w3.org/2000/svg" xmlns:xlink="http://www.w3.org/1999/xlink" viewBox="0 0 800 600"><defs><style>.cls-1,.cls-9{fill:none;}.cls-13,.cls-17,.cls-2{fill:#f9df3c;}.cls-15,.cls-3{fill:#f2786b;}.cls-4{fill:#7cc153;}.cls-5{fill:#de4131;}.cls-6{fill:#f6cac9;}.cls-12,.cls-7{fill:#b18e6a;}.cls-8{fill:#fff;}.cls-9{stroke:#f2786b;}.cls-12,.cls-13,.cls-14,.cls-15,.cls-16,.cls-17,.cls-18,.cls-9{stroke-miterlimit:10;}.cls-10{fill:#90a7cf;}.cls-11{fill:#090a11;}.cls-12,.cls-13,.cls-14,.cls-15,.cls-16,.cls-18{stroke:#f2776b;}.cls-14{fill:#f8de3b;opacity:0.5;}.cls-16,.cls-18{stroke-width:2px;}.cls-16{fill:url(#New_Pattern_Swatch_4);}.cls-17{stroke:#b18f69;}.cls-18{fill:url(#New_Pattern_Swatch_4-3);}.cls-19{fill:#404041;}</style><pattern id="New_Pattern_Swatch_4" data-name="New Pattern Swatch 4" width="12.75" height="35.88" patternTransform="matrix(-1, 0, 0, 1, -8.02, 18.44)" patternUnits="userSpaceOnUse" viewBox="0 0 12.75 35.88"><rect class="cls-1" width="12.75" height="35.88"/><rect class="cls-2" x="5" width="2.63" height="35.88"/><rect class="cls-3" x="7.63" width="5.13" height="35.88"/><rect class="cls-4" width="5" height="35.88"/></pattern><pattern id="New_Pattern_Swatch_4-3" data-name="New Pattern Swatch 4" width="12.75" height="35.88" patternTransform="translate(3.52 -16.79)" patternUnits="userSpaceOnUse" viewBox="0 0 12.75 35.88"><rect class="cls-1" width="12.75" height="35.88"/><rect class="cls-2" x="5" width="2.63" height="35.88"/><rect class="cls-3" x="7.63" width="5.13" height="35.88"/><rect class="cls-4" width="5" height="35.88"/></pattern></defs><path class="cls-5" d="M413.41,190.67c0,14.66,11.38,13.53,15.54,13.53s1.62-11.27,1.62-25.94,1.68-25.62-1.62-27.16C425,149.26,413.41,176,413.41,190.67Z"/><path class="cls-5" d="M385.75,191.77c0,14.23-11.38,13.14-15.55,13.14s-3.64-11.17-1.61-25.17c2.35-16.28-2.56-26.36,1.61-26.36S385.75,177.54,385.75,191.77Z"/><path class="cls-6" d="M373.42,116.35l1-1A4.11,4.11,0,0,0,373.42,116.35Z"/><path class="cls-6" d="M374.62,115.15l-.22.23a7.83,7.83,0,0,1,1.41-.83,6,6,0,0,0,0-.6Z"/><path class="cls-6" d="M425.12,115.38l1,1A4.24,4.24,0,0,0,425.12,115.38Z"/><path class="cls-6" d="M424.89,115.15l-1.2-1.2a5.91,5.91,0,0,0,0,.6,7.83,7.83,0,0,1,1.41.83Z"/><path class="cls-6" d="M457.75,540.32c-.95-4.43-7.36-3.44-11.07-4.2-4.47-.93-8.66-3.18-12.37-5.42-4.2-2.54-7.44-3.88-7.76-9.58a11.54,11.54,0,0,0-.28-1.57l0-1.91,2.49-166.47c1.4-.18,2.81-.33,4.26-.45.63-12.4.12-25,.12-37.48,0-12.73,3.51-33.73.17-46.58V266c4.63,6.57,3.59,20.31,5.2,28.27,2.46,12.19,7,21.26,7.11,34.54.07,7.62-3.08,14.39-4.66,21.43-1.39,6.23-1.19,13.86-3.21,19.18-1.81,4.8-6.52,6.4-5.77,11.38,1.15,7.61,6.69,3.9,8.32-1.64a10,10,0,0,1,4.53,0c.32,6.21.06,11.78-2.28,16.68-2,4.28-7,10.08,2.19,9.42,12.15-.87,13-23.35,13-32.62a564.88,564.88,0,0,0-8.78-96c-1.18-6.68-1.62-15.07-5.4-21-3.31-5.25-9.21-9.09-13.27-13.88-1.13-1.75-2.74-3.12-3.76-4.9-9.57-16.67-9.39-18.91-9.36-32.19l-.1,0c.4-7,1.25-14.09,2.73-18.25,2.69-7.59,6.11-14.79,8.69-22a46.46,46.46,0,0,0,2.16-12.54,61.72,61.72,0,0,0-.58-13.12c-.71-4.16.35-11.92-1.1-16-1.39-3.86-5.07-4.36-5.3-8.2-2.58-1.22-10.62-4.59-14.66-4.66-5.67-.1-8.68-6.5-10.6-3.87-1.93-2.63-9.68-5.67-15.89-.8-3.18,2.5-4.18,8.1-6.75,9.33-.24,3.84-3.91,4.34-5.3,8.2-1.46,4.06-.39,11.82-1.11,16a62.39,62.39,0,0,0-.58,13.12A47.25,47.25,0,0,0,371,164.39c2.58,7.17,6,14.37,8.7,22,2.62,7.39,3.26,24,2.94,33-1.14,4.32-3.48,9.06-8.29,17.44-1,1.78-2.64,3.15-3.77,4.9-4.06,4.79-10,8.63-13.27,13.88-3.77,6-4.22,14.37-5.4,21a564.88,564.88,0,0,0-8.78,96c0,9.27.86,31.75,13,32.62,9.22.66,4.22-5.14,2.18-9.42-2.34-4.9-2.6-10.47-2.28-16.68a10.09,10.09,0,0,1,4.54,0c1.62,5.54,7.16,9.25,8.31,1.64.75-5-4-6.58-5.77-11.38-2-5.32-1.81-12.95-3.21-19.18-1.57-7-4.27-13.81-4.2-21.43.13-13.28,4.19-22.35,6.65-34.54,1.61-8,.57-21.7,5.2-28.27v.69c-3.34,12.85.17,33.85.17,46.58,0,12.45-.51,25.08.12,37.48,1.45.12,2.86.27,4.26.45l2.49,166.47,0,1.91a11.54,11.54,0,0,0-.28,1.57c-.32,5.7-3.56,7-7.76,9.58-3.71,2.24-7.9,4.49-12.37,5.42-3.71.76-10.11-.23-11.07,4.2-1.32,6.14,4.74,5.06,8.68,5.66,2.23.35,3.91,1.18,6.26,1.28a45.32,45.32,0,0,0,7.92-.53c5.26-.75,10.63-.8,16.08-1.35,4.75-.47,12.3,1.23,13.33-4.24,1.2-6.41-2.53-12.36-1.87-18.42l0-3.35h0l0-.75,0-.73h0l-2.45-163.77c2.42.3,4.92.52,7.54.64v.08h.09c.57,0,1.12,0,1.68,0s1.1,0,1.67,0h.09v-.08c2.62-.12,5.12-.34,7.54-.64L407.3,517.89h0v1.48h0l.05,3.35c.67,6.06-3.07,12-1.87,18.42,1,5.47,8.58,3.77,13.33,4.24,5.45.55,10.82.6,16.08,1.35a45.43,45.43,0,0,0,7.93.53c2.35-.1,4-.93,6.25-1.28C453,545.38,459.07,546.46,457.75,540.32ZM399.76,179c-.06-1.38-.06-2.76,0-4.16C399.81,176.25,399.81,177.63,399.76,179Z"/><circle class="cls-7" cx="397.1" cy="157.69" r="1.3"/><circle class="cls-7" cx="402.6" cy="157.69" r="1.3"/><rect class="cls-8" x="391.05" y="169.16" width="3.2" height="1.6"/><rect class="cls-8" x="395.25" y="169.16" width="3.2" height="1.6"/><rect class="cls-8" x="404.05" y="169.1" width="3.2" height="1.6"/><rect class="cls-8" x="399.85" y="169.1" width="3.2" height="1.6"/><path class="cls-9" d="M411,168.33c-1.3-.18-2.3.62-3.45.8a18,18,0,0,1-2.75,0h-11.2a18.16,18.16,0,0,1-2.76,0c-1.15-.18-2.15-1-3.44-.8"/><circle class="cls-8" cx="414.15" cy="144.68" r="7.2"/><circle class="cls-8" cx="384.15" cy="144.68" r="7.2"/><circle class="cls-10" cx="384.15" cy="144.55" r="2.8"/><circle class="cls-4" cx="414.21" cy="144.55" r="4.4"/><circle class="cls-11" cx="414.21" cy="144.55" r="2.8"/><circle class="cls-11" cx="384.15" cy="144.55" r="0.8"/><path class="cls-6" d="M372.4,135.73a9.23,9.23,0,0,0,0,18.45Z"/><path class="cls-6" d="M425.89,134.93a9.23,9.23,0,1,1,0,18.45Z"/><rect class="cls-2" x="373.05" y="256.8" width="17.2" height="200.29"/><polygon class="cls-12" points="376.56 456.2 373.06 455.77 372.1 351.17 376.56 351.17 376.56 456.2"/><rect class="cls-3" x="379.38" y="256.8" width="6.27" height="201.39"/><polygon class="cls-7" points="367.55 266.67 369.8 264.2 372.06 261.73 374.31 259.27 376.56 256.8 376.56 280.39 376.56 303.98 376.56 327.57 376.56 351.17 374.43 351.17 372.3 351.17 370.18 351.17 368.05 351.17 366.11 335.63 366.11 309.23 366.11 268.63 367.55 266.67"/><rect class="cls-6" x="395.05" y="256.8" width="2.7" height="96.16"/><polygon class="cls-2" points="400.44 354.84 391.05 354.84 390.4 256.09 400.44 299.36 400.44 354.84"/><polygon class="cls-12" points="395.14 280.19 388.54 248.17 388.77 351.39 388.35 351.17 387.85 455.77 392.66 455.77 394.55 356.67 395.05 356.44 395.14 280.19"/><polygon class="cls-3" points="403.78 354.84 397.51 354.84 397.58 287 403.78 313.09 403.78 354.84"/><rect class="cls-6" x="402.88" y="256.5" width="2.7" height="96.16"/><line class="cls-2" x1="410.23" y1="255.79" x2="400.18" y2="299.06"/><polygon class="cls-13" points="366.11 269.54 366.11 335.63 367.8 351.17 369.89 351.17 369.89 326.99 369.89 322.47 369.89 269.54 366.11 269.54"/><polygon class="cls-3" points="400.23 298.16 397.75 296.53 383.39 235.47 385.64 235.47 400.23 298.16"/><path class="cls-14" d="M408.65,129.85a9.5,9.5,0,1,1-9.5-9.5A9.5,9.5,0,0,1,408.65,129.85Z"/><path class="cls-5" d="M410.88,115.28c3,17,18.12,29.28,19.28,37,2,13.2,5.66-12,6.59-26.6,1.15-18.15-2.9-23.3-9.77-31.92-7.91-9.93-15.55,7.8-16.34,10.78-.14,1.82-.64,4.35-.24,6.18"/><path class="cls-5" d="M410.88,115.28c-1.75,5.87-13.13-1.78-21.23,5.81-6.69,6.27-5.5,5.13-9.87,11.6-5,7.48-8.63,12.07-10.43,21.27-2,10.09-6.21-9.85-7-16-3.83-29.52-2-25.8-.9-31.3,2.23-11.24,23.27-20.56,36.95-22.27,11.94-1.49,18.23,8,20.4,18.22"/><ellipse class="cls-5" cx="407.25" cy="100.58" rx="11.85" ry="9.25"/><rect class="cls-2" x="410.38" y="257" width="17.2" height="200.29"/><polygon class="cls-12" points="424.07 456.4 427.57 455.97 428.53 351.37 424.07 351.37 424.07 456.4"/><rect class="cls-3" x="414.98" y="257" width="6.27" height="201.39"/><polygon class="cls-7" points="433.08 266.87 430.83 264.4 428.57 261.93 426.32 259.47 424.07 257 424.07 280.59 424.07 304.18 424.07 327.77 424.07 351.37 426.2 351.37 428.33 351.37 430.46 351.37 432.58 351.37 434.52 335.83 434.52 309.43 434.52 268.83 433.08 266.87"/><rect class="cls-6" x="402.88" y="257" width="2.7" height="96.16"/><polygon class="cls-2" points="400.18 355.04 409.58 355.04 410.23 256.29 400.18 299.56 400.18 355.04"/><polygon class="cls-12" points="412.78 455.97 412.28 351.37 411.86 351.59 412.09 248.37 405.48 280.39 405.58 356.64 406.08 356.87 407.8 455.97 412.78 455.97"/><polygon class="cls-3" points="397.75 355.04 403.12 355.04 403.06 287.2 397.75 313.29 397.75 355.04"/><line class="cls-2" x1="390.4" y1="255.99" x2="400.45" y2="299.26"/><polygon class="cls-13" points="430.73 269.74 430.73 322.67 430.73 327.19 430.73 351.37 432.83 351.37 434.52 335.83 434.52 269.74 430.73 269.74"/><polygon class="cls-3" points="399.43 301.07 401.94 299.38 416.43 235.67 414.16 235.67 399.43 301.07"/><polygon class="cls-13" points="343.23 357.71 347.8 357.71 352.37 357.71 356.94 357.71 361.51 357.71 361.51 331.69 361.51 305.66 361.51 279.64 361.51 253.62 356.94 253.62 352.37 253.62 347.25 255.79 346.19 253.62 345.07 284.49 343.23 305.66 343.23 331.69 343.23 357.71"/><polygon class="cls-15" points="355.91 357.71 354.11 357.71 352.31 357.71 350.51 357.71 348.71 357.71 348.71 331.69 348.71 305.66 350.44 274.49 352.31 253.62 350.51 253.62 352.31 253.62 354.11 253.62 359.53 253.62 357.56 279.69 355.91 305.66 355.91 331.69 355.91 357.71"/><polygon class="cls-12" points="361.51 357.71 360.52 357.71 359.53 357.71 358.55 357.71 357.56 357.71 357.56 331.69 357.56 305.66 359.53 279.09 361.51 253.62 358.55 253.62 359.53 253.62 360.52 253.62 368.85 256.8 363.9 278.76 361.51 305.66 361.51 331.69 361.51 357.71"/><polygon class="cls-12" points="345.38 357.71 344.39 357.71 343.4 357.71 342.41 357.71 341.43 357.71 341.43 331.69 341.43 305.66 341.85 295.09 346.85 249.49 348.71 253.62 346.25 285.49 345.38 305.66 345.38 331.69 345.38 357.71"/><rect class="cls-12" x="343.4" y="357.71" width="17.89" height="5.18"/><polygon class="cls-2" points="457.36 357.18 452.78 357.18 448.21 357.18 443.64 357.18 439.07 357.18 439.07 331.16 439.07 305.14 439.07 279.11 439.07 253.09 443.64 253.09 448.21 253.09 453.33 255.26 454.39 253.09 455.51 283.96 457.36 305.14 457.36 331.16 457.36 357.18"/><polygon class="cls-15" points="444.67 357.18 446.47 357.18 448.27 357.18 450.07 357.18 451.87 357.18 451.87 331.16 451.87 305.14 450.13 273.96 448.27 253.09 450.07 253.09 448.27 253.09 446.47 253.09 441.04 253.09 443.02 279.16 444.67 305.14 444.67 331.16 444.67 357.18"/><polygon class="cls-12" points="439.07 357.18 440.06 357.18 441.04 357.18 442.03 357.18 443.02 357.18 443.02 331.16 443.02 305.14 441.04 278.56 439.07 253.09 442.03 253.09 441.04 253.09 440.06 253.09 431.73 256.28 436.68 278.24 439.07 305.14 439.07 331.16 439.07 357.18"/><polygon class="cls-12" points="455.2 357.18 456.19 357.18 457.18 357.18 458.17 357.18 459.15 357.18 459.15 331.16 459.15 305.14 458.73 294.56 453.73 248.96 451.87 253.09 454.33 284.96 455.2 305.14 455.2 331.16 455.2 357.18"/><rect class="cls-12" x="439.29" y="357.18" width="17.89" height="5.18"/><path class="cls-16" d="M465.11,229.76c0,22.56-34.42,47.15-59.53,47.15l9.4-41.24Z"/><polygon class="cls-17" points="442.79 255.19 412.38 244.34 418.38 215.75 442.79 255.19"/><path class="cls-18" d="M334.89,230.27c0,22.57,34.42,47.15,59.53,47.15L385,236.18Z"/><polygon class="cls-17" points="356.94 253.62 387.35 242.77 381.35 214.18 356.94 253.62"/><path class="cls-5" d="M393,523.6l.63-3.27-.92-64.56h-19.6l.94,62.75,0,1.91a9,9,0,0,0-.28,1.57c-.32,5.7-3.57,7-7.77,9.57-3.71,2.25-7.89,4.5-12.36,5.42-3.72.77-10.12-.22-11.07,4.21-1.32,6.14,4.74,5.06,8.68,5.66,2.22.34,3.9,1.18,6.25,1.27a44.54,44.54,0,0,0,7.93-.52c5.26-.76,10.63-.8,16.08-1.35,4.74-.48,12.3,1.23,13.32-4.24C396,535.61,392.28,529.65,393,523.6Z"/><path class="cls-5" d="M407.69,523.8l-.06-3.35-.43-.22.6-64.26h19.77l-.94,62.75,0,1.91a10,10,0,0,1,.29,1.57c.31,5.7,3.56,7,7.76,9.57,3.71,2.25,7.89,4.5,12.36,5.42,3.72.77,10.12-.22,11.08,4.21,1.32,6.14-4.74,5.06-8.69,5.66-2.22.34-3.9,1.18-6.25,1.27a44.37,44.37,0,0,1-7.92-.52c-5.27-.76-10.64-.8-16.08-1.35-4.75-.48-12.31,1.23-13.33-4.24C404.62,535.81,408.35,529.85,407.69,523.8Z"/><path class="cls-19" d="M396.55,531.58c-.64-4.39-5.47-6.21-5.5-9.17-4.63-.22-9.92-4.84-14.13-3-2.05.88-8.35,6-10.62,7.46-2.47,1.61-4.24,3.23-7.11,4.17-.63.21-1.34.39-2.11.58h-9.72c-5.85,0-10.58,6.69-10.58,14.95h0c-.15,2.3,6.41,2.31,12.23,2.31h46l1.56-2.31h0V531.58Z"/><path class="cls-5" d="M396.65,535.66v-4.3h-.1c-.64-4.38-3.51-9.7-3.54-12.66-4.62-.21-11.88-1.34-16.09.45-2.05.88-8.35,6-10.62,7.46-2.47,1.61-4.24,3.24-7.11,4.18-.63.2-1.34.39-2.11.57h-9.72c-3.31,0-5.41.84-7.35,4.19Z"/><path class="cls-19" d="M404.08,531.78c.64-4.39,5.48-6.21,5.5-9.17,4.63-.22,9.92-4.84,14.13-3,2.05.88,8.35,6,10.62,7.46,2.47,1.61,4.24,3.23,7.11,4.17.63.21,1.34.39,2.11.58h9.72c5.85,0,10.58,6.69,10.58,15h0C464,549,457.42,549,451.6,549h-46L404,546.73h0v-15Z"/><path class="cls-5" d="M404,535.86v-4.3h.09c.64-4.38,3.51-9.7,3.54-12.66,4.62-.21,11.88-1.34,16.09.45,2.05.88,8.35,6,10.62,7.46,2.47,1.61,4.24,3.24,7.11,4.18.63.2,1.34.39,2.11.57h9.72c3.31,0,5.41.84,7.35,4.19Z"/></svg>